<svg width="170" height="80" viewBox="0 0 170 80" fill="none" xmlns="http://www.w3.org/2000/svg">
<path opacity="0.4" d="M18.7044 67.9351C17.4414 67.8619 16.5431 67.7085 15.7964 67.4401C15.4763 67.3285 15.4866 67.3355 15.4866 67.1926C15.4866 67.0671 15.5141 67.0323 15.9099 66.6523C17.1351 65.4741 18.9659 64.5016 20.8553 64.0205C21.1478 63.9473 21.4507 63.8741 21.5264 63.8637C21.6021 63.8497 21.7432 63.8253 21.8361 63.8044C21.9325 63.787 22.3007 63.7452 22.6586 63.7138L23.3125 63.6545L22.9856 63.5256C22.4659 63.3199 22.0048 63.1247 21.5264 62.8981C20.8588 62.5844 20.8966 62.5983 20.8278 62.682C20.6454 62.9086 19.9984 63.3478 19.4994 63.5848C18.2811 64.1704 16.9768 64.4005 15.1769 64.3587C14.2511 64.3343 13.5387 64.2471 12.6921 64.0554C11.6012 63.8079 10.3829 63.3304 9.68774 62.8737C9.61203 62.8249 9.51911 62.7657 9.48125 62.7447C9.43651 62.7203 9.40898 62.6611 9.4021 62.5844C9.39177 62.4694 9.40554 62.4519 9.57417 62.3404C10.0044 62.0511 10.7787 61.6467 11.1882 61.4933C12.3446 61.0576 13.26 60.8311 14.3853 60.7056C14.9325 60.6428 15.1597 60.6358 16.0028 60.6533C16.5879 60.6637 17.1213 60.6916 17.3278 60.7195C17.5171 60.7509 17.6754 60.7683 17.6788 60.7683C17.6823 60.7648 17.4896 60.6289 17.2487 60.465C16.815 60.1722 15.8893 59.4821 15.7275 59.3322L15.6415 59.252L15.4694 59.3566C14.9291 59.6807 14.3406 59.8934 13.525 60.0537C13.1671 60.1269 13.0294 60.1339 12.0451 60.1339C10.7615 60.1339 10.3519 60.0816 9.18873 59.7783C7.70889 59.3949 6.16367 58.6315 5.08305 57.7566C4.60813 57.3732 4.54274 57.3 4.54274 57.1431C4.54274 57.0176 4.54962 57.0072 4.72514 56.9305C5.21039 56.7143 6.02602 56.4808 6.74528 56.3553C8.03239 56.1322 9.80131 56.1462 11.0471 56.3867C11.787 56.5331 12.5338 56.7457 12.9916 56.9444C13.1602 57.0176 13.1774 57.0141 13.081 56.92C12.9262 56.7666 12.169 55.9091 11.8593 55.5361C11.5771 55.1945 11.5083 55.1283 11.4463 55.1457C10.5171 55.4072 9.32639 55.3932 8.15629 55.1109C7.64351 54.9854 6.74528 54.6438 6.20153 54.3684C5.4857 54.0024 4.58748 53.4063 3.97146 52.8835C3.66517 52.6255 2.85986 51.8029 2.64305 51.524C2.25416 51.0325 2.03047 50.6665 2.03047 50.5271C2.03047 50.4086 2.04079 50.3981 2.14404 50.3772C2.97343 50.2308 4.36378 50.2796 5.4272 50.4957C5.82641 50.5759 6.64204 50.7885 6.81411 50.8582C6.8795 50.8861 7.12729 50.9802 7.36475 51.0744C7.94636 51.3009 8.78952 51.7297 9.19905 52.0051C9.38145 52.1305 9.53287 52.2281 9.53287 52.2247C9.53287 52.2177 9.45028 52.0748 9.35392 51.904C9.09925 51.4682 9.09581 51.4613 8.73101 50.7397L8.40407 50.0948L7.82246 50.0739C7.203 50.053 6.8795 49.9938 6.28068 49.7916C5.90901 49.6696 5.39278 49.443 5.11747 49.2861C5.0039 49.2234 4.91098 49.1711 4.9041 49.1711C4.82494 49.1711 3.77185 48.4217 3.42426 48.1184C2.38838 47.2121 1.50392 46.128 0.905107 45.0405C0.650438 44.5734 0.536869 44.3189 0.289084 43.6531C0.261552 43.5834 0.240903 43.4614 0.240903 43.3847C0.240903 43.2488 0.244344 43.2453 0.361354 43.2453C0.757124 43.2453 1.73794 43.437 2.30579 43.6287C3.97834 44.1899 5.53733 45.152 6.71775 46.3581C6.92424 46.5672 7.08255 46.7136 7.07222 46.6892C6.87262 46.0827 6.556 44.8766 6.43211 44.2387C6.41146 44.1237 6.38737 44.0122 6.38049 43.9912C6.37705 43.9703 6.28413 43.939 6.174 43.925C5.8918 43.8902 5.20006 43.6496 4.83527 43.4579C3.91984 42.9804 3.04914 42.2205 2.28514 41.2375C1.46262 40.1848 0.853485 39.038 0.437067 37.7726C0.199605 37.0545 0 36.0228 0 35.5278C0 35.3674 4.95966e-08 35.3674 0.11701 35.3674C0.35103 35.3674 1.3525 35.8171 1.91002 36.1726C2.68435 36.6606 3.27628 37.1452 3.97834 37.8563C4.79053 38.6824 5.2861 39.3482 5.81609 40.3347L5.8918 40.4741L5.87115 40.3347C5.83673 40.0907 5.78167 38.7521 5.78167 38.1212V37.5112L5.54077 37.4136C5.21727 37.2811 4.64943 36.9291 4.33625 36.6711C3.84068 36.2633 3.3692 35.7195 2.88395 35.0014C2.20598 33.9975 1.6347 32.5823 1.34562 31.1845C1.16666 30.3235 1.12536 29.8703 1.14257 28.8664C1.15289 28.368 1.1701 27.9323 1.18387 27.9009C1.22172 27.8137 1.411 27.8207 1.56931 27.9113C2.03047 28.1728 2.67746 28.6991 3.22466 29.2603C4.54274 30.6093 5.57862 32.3975 5.99504 34.0428L6.0329 34.1997L6.06387 34.0603C6.07764 33.9836 6.12238 33.7396 6.15679 33.52C6.2738 32.8263 6.32542 32.5405 6.44932 31.9862L6.56977 31.4459L6.49406 31.3832C5.88492 30.8952 5.63713 30.6337 5.27233 30.0934C4.3569 28.7479 3.83724 26.6704 3.90263 24.6312C3.91295 24.2757 3.94048 23.8365 3.95769 23.6552C4.01964 23.0696 4.19859 22.2609 4.36034 21.8252C4.41885 21.6683 4.43606 21.6509 4.5393 21.6404C4.64254 21.63 4.6804 21.6544 4.8628 21.8321C5.23448 22.1981 5.84018 23.0103 6.11893 23.5158C6.71087 24.5964 7.1204 25.6839 7.32689 26.7401C7.39572 27.0852 7.49552 27.8521 7.50929 28.1519L7.51961 28.3087L7.60221 28.0821C7.67792 27.8625 7.78805 27.5941 7.91882 27.2909C7.95668 27.2072 7.98421 27.134 7.98421 27.1236C7.98421 27.1026 8.13564 26.768 8.35933 26.2905L8.49011 26.0116L8.34557 25.8338C7.73299 25.0704 7.29592 23.8748 7.19267 22.6792C7.14793 22.1703 7.14793 21.1106 7.19267 20.5807C7.31657 19.0819 7.8259 17.461 8.54173 16.3107C8.71725 16.0318 8.72757 16.0213 8.85146 16.0213C9.00289 16.0213 9.04763 16.0806 9.34359 16.6732C10.0319 18.0361 10.407 19.908 10.3416 21.6334C10.3313 21.9507 10.3072 22.3027 10.29 22.4177C10.2728 22.5328 10.2487 22.6966 10.2384 22.7803L10.2177 22.9336L10.3795 22.6931C10.6926 22.2295 11.0953 21.6823 11.467 21.2082C11.8283 20.7481 11.8387 20.7271 11.7905 20.6505C11.6976 20.5041 11.5083 19.9812 11.4326 19.664C11.2949 19.0958 11.2536 18.2348 11.3224 17.4645C11.4807 15.6797 12.3962 13.5743 13.5181 12.4205C13.7246 12.2079 13.759 12.1835 13.8691 12.194C13.9827 12.2044 13.993 12.2149 14.0687 12.431C14.523 13.7207 14.5953 15.7529 14.2442 17.3111C14.1892 17.5586 13.9517 18.3429 13.8795 18.5311C13.8691 18.559 13.9586 18.4893 14.0791 18.3742C14.1995 18.2592 14.4266 18.057 14.5815 17.9246C14.8086 17.7294 14.8672 17.6597 14.8844 17.5586C14.9773 17.0427 15.3937 16.2165 15.8962 15.5508C16.1508 15.2092 16.7841 14.5747 17.2074 14.2297C17.5721 13.9334 18.0815 13.5604 18.2054 13.5011C18.2604 13.4732 18.288 13.4558 18.6011 13.2606C18.8593 13.1037 19.5269 12.7796 19.9605 12.6053C20.8278 12.2567 21.8878 12.0127 22.5451 12.0127H22.7825V12.1486C22.7825 12.3752 22.4281 13.1909 22.0805 13.7556C21.64 14.4737 21.2476 14.9652 20.549 15.6728C19.0244 17.217 17.1592 18.1721 15.6621 18.1825C15.4935 18.1825 15.4625 18.1965 15.318 18.3289C15.0702 18.5555 14.3853 19.2248 14.3853 19.2422C14.3853 19.2492 14.523 19.2039 14.6951 19.1411C15.965 18.6601 17.7924 18.4858 19.1931 18.7089C19.5407 18.7647 20.2049 18.925 20.4251 19.0087C20.5834 19.0679 20.5972 19.0819 20.6075 19.1969C20.6179 19.3119 20.5972 19.3398 20.3666 19.5629C19.2447 20.64 17.6685 21.4138 15.934 21.738C15.435 21.8321 14.2787 21.8705 13.8244 21.8112C13.4527 21.7589 12.9503 21.6334 12.6681 21.5184L12.4547 21.4313L12.2998 21.6265C12.1622 21.8043 11.67 22.491 11.522 22.714C11.2054 23.1811 11.023 23.4635 11.0299 23.4739C11.0334 23.4774 11.1813 23.4147 11.3603 23.3275C11.8765 23.0835 12.5407 22.8918 13.3357 22.7594C13.876 22.6687 15.4935 22.6687 16.0889 22.7594C16.7806 22.8639 17.5515 23.08 18.078 23.3171C18.2639 23.4042 18.2742 23.4147 18.2742 23.5367C18.2742 23.6831 18.2604 23.697 17.8096 24.0352C16.729 24.8473 15.1115 25.4608 13.6661 25.6072C13.2221 25.6526 12.2654 25.6526 11.8559 25.6072C11.319 25.5515 10.6823 25.3702 10.2762 25.1645C10.1833 25.1157 10.0973 25.0913 10.0835 25.1088C10.025 25.1715 9.47781 26.287 9.25067 26.8098C8.94782 27.5035 8.53485 28.5492 8.5555 28.5667C8.56238 28.5771 8.63465 28.5214 8.71724 28.4447C9.78754 27.4164 11.553 26.6495 13.4389 26.3881C13.9311 26.3218 15.5314 26.3323 15.8927 26.409L16.1061 26.4508V26.6007C16.1061 26.7297 16.0786 26.7889 15.9065 27.026C14.7674 28.5667 12.613 29.9226 10.6376 30.3374C10.0491 30.4594 8.996 30.4908 8.50043 30.4002C8.32148 30.3653 8.1322 30.3305 8.08401 30.3235C7.97389 30.3026 7.97733 30.2991 7.79837 31.0276C7.55059 32.0211 7.31313 33.2585 7.2443 33.886C7.23053 34.001 7.21332 34.1335 7.203 34.1823L7.18579 34.2694L7.24774 34.1823C7.76052 33.4572 8.60712 32.652 9.3608 32.164C9.52255 32.0594 9.69462 31.9479 9.7428 31.913C9.9252 31.7875 10.6961 31.3971 11.0643 31.2437C11.6459 31.0032 11.9006 30.9231 12.8677 30.6965C12.9503 30.6756 13.2187 30.6477 13.463 30.6372L13.9035 30.6163V30.7557C13.9035 30.9405 13.8416 31.1078 13.6007 31.5993C13.0397 32.7287 12.1725 33.7953 11.1159 34.6494C9.82196 35.6986 8.46602 36.2737 7.29248 36.2737H7.02404L6.99995 36.4724C6.95521 36.8524 7.01028 39.0345 7.08599 39.8641C7.12729 40.2963 7.17202 40.6832 7.18579 40.7286C7.20644 40.7948 7.23053 40.753 7.32001 40.4811C7.42325 40.1708 7.69513 39.5678 7.90506 39.1844C8.23544 38.5848 8.95127 37.668 9.5432 37.0894C10.5309 36.1204 11.5633 35.4162 12.5958 35.0049C12.6818 34.97 12.8023 34.9212 12.8642 34.8934C13.0225 34.8236 13.2462 34.8306 13.2738 34.9038C13.3082 34.9944 13.1843 35.8694 13.0776 36.3086C12.9606 36.7722 12.9193 36.9151 12.7713 37.3195C12.4719 38.1316 12.0658 38.9125 11.5358 39.7002C11.0953 40.3591 10.3657 41.1678 9.82196 41.6105C9.52255 41.851 9.06483 42.1542 8.75166 42.3146C8.40407 42.4924 7.69857 42.7573 7.56779 42.7573C7.51617 42.7573 7.51961 42.7921 7.59188 43.1337C7.68825 43.5764 7.88785 44.3642 8.0083 44.779C8.05648 44.9429 8.11499 45.145 8.13908 45.2322C8.20447 45.4657 8.30771 45.7725 8.54517 46.4348L8.75854 47.0274L8.81361 46.6021C9.08204 44.6187 10.1833 42.5168 11.8111 40.8854C12.4306 40.2649 12.7747 39.9826 13.3804 39.6026C13.6041 39.4632 13.7211 39.4109 13.8106 39.4109H13.9311L13.9552 39.6375C14.0033 40.0697 13.9517 41.5547 13.8726 42.0253C13.7211 42.9595 13.5043 43.7368 13.1636 44.5873C13.0088 44.9707 12.6164 45.7829 12.5063 45.9503C12.4616 46.0165 12.4237 46.0792 12.4237 46.0897C12.4237 46.1001 12.3273 46.2535 12.2138 46.4278C11.5117 47.491 10.6686 48.2997 9.81507 48.7354C9.67742 48.8051 9.56729 48.8679 9.56729 48.8783C9.56729 48.9132 9.9665 49.6975 10.1523 50.0251C10.259 50.2169 10.3554 50.3911 10.3623 50.4086C10.438 50.6038 11.6631 52.5244 11.7423 52.5732C11.7698 52.5907 11.7733 52.5663 11.7595 52.4896C11.7492 52.4303 11.7285 52.1201 11.7148 51.7959C11.67 50.5933 11.8696 49.2931 12.3067 47.986C12.847 46.372 13.6833 44.9324 14.7295 43.8239C15.0323 43.5067 15.0599 43.4858 15.1734 43.4963C15.2905 43.5067 15.3008 43.5172 15.3765 43.7333C15.7 44.6501 15.8652 45.8108 15.8652 47.1494C15.8652 50.0077 15.0117 52.5035 13.5181 54.0233C13.1602 54.3893 13.1533 54.3998 13.2152 54.4695C13.6971 55.0342 14.6744 56.0486 15.2113 56.547C15.3903 56.7109 15.7619 57.0385 16.0373 57.2686C16.3126 57.5021 16.5431 57.7008 16.5535 57.7113C16.5638 57.7217 16.7634 57.8786 16.9974 58.0564L17.4207 58.384L17.2865 58.1261C17.0284 57.6416 16.76 56.8817 16.5913 56.1636C16.3539 55.1701 16.2782 54.5113 16.2541 53.3018C16.23 52.0539 16.3091 51.273 16.5776 50.0077C16.7428 49.2234 17.1179 48.1358 17.4035 47.6025C17.4964 47.4317 17.5205 47.4108 17.6307 47.4003C17.7442 47.3899 17.7649 47.4038 17.9369 47.6269C20.1326 50.4434 21.0102 55.3758 19.8676 58.4747C19.7403 58.8198 19.5338 59.2659 19.3892 59.496C19.3445 59.5692 19.3067 59.6354 19.3067 59.6424C19.3067 59.6563 19.7024 59.9038 20.0122 60.0816C20.7865 60.5313 21.7535 61.0297 22.4212 61.3295C22.5933 61.4062 22.7997 61.5003 22.8858 61.5387C22.9718 61.5805 23.1817 61.6676 23.3504 61.7374C23.5225 61.8071 23.6842 61.8733 23.7083 61.8872C23.7358 61.8977 23.6326 61.7548 23.4777 61.57C23.3228 61.3853 23.1542 61.1692 23.1026 61.089C22.7137 60.4999 22.7378 60.5382 22.4384 59.9422C21.7398 58.5409 21.3337 56.8886 21.2304 55.0447C21.1547 53.6573 21.3096 52.141 21.6228 51.1545C21.7054 50.9001 21.7088 50.8966 21.8327 50.8861C21.9566 50.8757 21.9807 50.8931 22.4694 51.3916C23.6498 52.5976 24.548 54.1 25.2191 56.0032C25.6149 57.1292 25.8454 58.4538 25.8454 59.6285C25.8454 60.5975 25.7181 61.3888 25.4462 62.1243C25.3808 62.309 25.3292 62.4624 25.3361 62.4694C25.3808 62.5147 26.6404 62.8737 27.5146 63.0933C28.6674 63.3826 30.5809 63.6964 31.603 63.7626C31.8818 63.78 31.9816 63.8009 31.9954 63.8358C32.0057 63.8637 31.9988 64.1181 31.9747 64.397C31.9541 64.6794 31.9265 65.0488 31.9162 65.2197L31.8921 65.5299L31.4757 65.509C30.3538 65.4532 28.4472 65.1499 26.9089 64.777C26.7196 64.7281 26.7161 64.7316 26.6645 64.8188C26.5647 65 26.1827 65.4497 25.9556 65.6623C24.8199 66.7185 23.2609 67.4262 21.3199 67.7643C20.5249 67.9037 19.3858 67.9769 18.7044 67.9351Z" fill="#E3F8F6"/>
<path d="M69.6457 12.96H70.7857C72.6657 12.96 73.5857 12.32 73.5857 10.34C73.5857 8.27998 72.4057 7.83998 71.0257 7.83998H69.6457V12.96ZM69.6457 6.31998H70.4457C72.1857 6.31998 73.0057 5.47998 73.0057 3.81998C73.0057 1.95998 71.9657 1.51998 70.7657 1.51998H69.6457V6.31998ZM65.3257 -2.02656e-05H71.6257C74.8857 -2.02656e-05 75.9257 1.53998 75.9257 3.41998C75.9257 5.45998 74.6457 6.43998 73.4457 6.85998V6.91998C75.7257 7.21998 76.8057 8.49998 76.8057 10.46C76.8057 13.38 74.5257 14.48 71.2857 14.48H65.3057V13.36L65.8457 13.3C66.5657 13.18 66.6057 13.06 66.6057 11.72V2.65998C66.6057 1.49998 66.4857 1.27998 65.8057 1.17998L65.3257 1.11998V-2.02656e-05ZM86.5321 12.12L87.2121 13.32C86.1521 14.22 84.6921 14.72 83.2721 14.72C79.6321 14.72 78.1121 12.32 78.1121 9.21998C78.1121 5.51998 80.4721 3.79998 83.0921 3.79998C85.5721 3.79998 87.2121 5.17998 87.2121 8.67998C87.2121 8.95998 87.1921 9.35998 87.1521 9.75998H81.2321C81.2921 11.76 82.2521 12.86 83.9521 12.86C84.8321 12.86 85.5721 12.64 86.5321 12.12ZM81.2321 8.19998H84.3721C84.4521 6.21998 83.9121 5.43998 82.9521 5.43998C81.9521 5.43998 81.2921 6.21998 81.2321 8.19998ZM96.4446 7.21998L94.7446 7.03998L94.4846 5.97998C94.3646 5.57998 94.0246 5.37998 93.1046 5.37998C92.0046 5.37998 91.3646 5.73998 91.3646 6.51998C91.3646 8.73998 97.0246 7.05998 97.0246 11.1C97.0246 13.28 95.3846 14.72 92.4446 14.72C90.4646 14.72 89.0646 14.26 88.6046 13.98L88.8646 11.3H90.5246L90.7446 12.38C90.8646 12.86 91.2446 13.18 92.5446 13.18C93.5246 13.18 94.3046 12.86 94.3046 11.96C94.3046 9.53998 88.7046 11.54 88.7046 7.29998C88.7046 4.97998 90.6646 3.79998 93.1046 3.79998C94.6646 3.79998 95.9646 4.19998 96.5646 4.55998L96.4446 7.21998ZM104.83 12.56L105.29 13.86C104.63 14.3 103.37 14.72 102.15 14.72C99.9502 14.72 99.1502 13.64 99.1502 11.42V5.57998H97.7102L97.8702 4.21998L99.3102 3.99998L100.59 0.97998H102.09V4.01998H104.83L104.63 5.57998H102.09V11.1C102.09 12.3 102.27 12.94 103.25 12.94C103.93 12.94 104.47 12.72 104.83 12.56Z" fill="#F5FFFE"/>
<path d="M70.1188 26.46V25.48H75.7188V26.46H73.4688V32.48H72.3588V26.46H70.1188ZM82.3637 31.51V32.48H77.6737V25.48H82.3637V26.45H78.7737V28.4H81.4237V29.33H78.7737V31.51H82.3637ZM84.5647 25.48H87.2647C88.6447 25.48 89.7447 26.01 89.7447 27.46C89.7447 28.53 89.0547 29.22 88.0147 29.37C88.4147 29.54 88.6847 29.87 88.9647 30.39L90.0647 32.48H88.8347L87.8647 30.63C87.5047 29.96 87.2347 29.72 86.5247 29.72H85.6647V32.48H84.5647V25.48ZM87.1547 28.78C88.0647 28.78 88.6047 28.36 88.6047 27.56C88.6047 26.79 88.0847 26.43 87.2047 26.43H85.6647V28.78H87.1547ZM92.0514 25.48H93.6014L95.7414 30.99L97.9314 25.48H99.4714V32.48H98.3814V26.86L96.1614 32.48H95.2714L93.0714 26.77V32.48H92.0514V25.48ZM45.1054 44.5V45.48H40.7954V38.48H41.8954V44.5H45.1054ZM47.1395 38.48H48.2395V45.48H47.1395V38.48ZM50.6809 45.48V38.48H55.2709V39.46H51.7809V41.58H54.3309V42.52H51.7809V45.48H50.6809ZM61.9495 44.51V45.48H57.2595V38.48H61.9495V39.45H58.3595V41.4H61.0095V42.33H58.3595V44.51H61.9495ZM67.4868 38.48H68.5868V45.48H67.4868V38.48ZM71.0282 38.48H72.2482L75.4582 43.82V38.48H76.5182V45.48H75.2982L72.0882 40.19V45.48H71.0282V38.48ZM81.3813 45.62C79.8013 45.62 78.9413 44.91 78.6213 43.63L79.6713 43.27C79.8413 44.05 80.2813 44.7 81.4013 44.7C82.4213 44.7 82.8713 44.11 82.8713 43.5C82.8713 42.95 82.5313 42.68 81.8613 42.56L80.8113 42.37C79.7313 42.18 78.8513 41.7 78.8513 40.5C78.8513 39.27 79.8413 38.34 81.4513 38.34C82.9613 38.34 83.7813 39.05 84.0013 40.24L82.9813 40.59C82.8113 39.7 82.3413 39.26 81.4113 39.26C80.4713 39.26 79.9813 39.78 79.9813 40.4C79.9813 40.94 80.3213 41.23 81.0013 41.35L81.9513 41.52C83.1013 41.73 84.0013 42.17 84.0013 43.41C84.0013 44.79 82.8513 45.62 81.3813 45.62ZM86.147 38.48H87.277V42.8C87.277 43.85 87.757 44.63 88.877 44.63C89.977 44.63 90.467 43.85 90.467 42.8V38.48H91.587V42.88C91.587 44.33 90.817 45.62 88.867 45.62C86.867 45.62 86.147 44.39 86.147 42.88V38.48ZM93.9766 38.48H96.6766C98.0566 38.48 99.1566 39.01 99.1566 40.46C99.1566 41.53 98.4666 42.22 97.4266 42.37C97.8266 42.54 98.0966 42.87 98.3766 43.39L99.4766 45.48H98.2466L97.2766 43.63C96.9166 42.96 96.6466 42.72 95.9366 42.72H95.0766V45.48H93.9766V38.48ZM96.5666 41.78C97.4766 41.78 98.0166 41.36 98.0166 40.56C98.0166 39.79 97.4966 39.43 96.6166 39.43H95.0766V41.78H96.5666ZM100.964 45.48L103.454 38.48H104.764L107.224 45.48H106.064L105.504 43.78H102.694L102.124 45.48H100.964ZM103.014 42.82H105.184L104.104 39.57L103.014 42.82ZM109.136 38.48H110.356L113.566 43.82V38.48H114.626V45.48H113.406L110.196 40.19V45.48H109.136V38.48ZM119.792 45.62C117.932 45.62 116.782 44.24 116.782 41.97C116.782 39.67 117.992 38.34 119.852 38.34C121.552 38.34 122.352 39.44 122.562 40.68L121.472 41.03C121.352 40.14 120.902 39.33 119.822 39.33C118.662 39.33 117.932 40.27 117.932 41.98C117.932 43.68 118.652 44.63 119.802 44.63C120.782 44.63 121.342 43.89 121.482 42.92L122.552 43.25C122.292 44.61 121.452 45.62 119.792 45.62ZM129.444 44.51V45.48H124.754V38.48H129.444V39.45H125.854V41.4H128.504V42.33H125.854V44.51H129.444Z" fill="#E3F8F6"/>
<g clip-path="url(#clip0_48769_1930)">
<path fill-rule="evenodd" clip-rule="evenodd" d="M52.0684 56.7028H56.5105C58.9831 56.7028 60.2726 57.9965 60.2726 59.5922C60.2726 60.6919 59.6633 61.4394 58.8131 61.8275V61.8562C59.8971 62.2515 60.5064 63.1212 60.5064 64.2353C60.5064 65.8237 59.3019 67.2181 56.6876 67.2181H52.0684V56.7028ZM56.3688 60.8715C57.1056 60.8715 57.4386 60.4906 57.4386 60.0665C57.4386 59.6425 57.1056 59.2472 56.3688 59.2472H55.0652V60.8644H56.3688V60.8715ZM56.4113 64.6737C57.1907 64.6737 57.5662 64.2928 57.5662 63.804C57.5662 63.3153 57.1765 62.9344 56.4255 62.9344H55.0652V64.6737H56.4113ZM61.144 62.9415V56.7028H64.1692V62.9128C64.1692 64.0844 64.736 64.7025 65.7066 64.7025C66.6772 64.7025 67.2865 64.0844 67.2865 62.8984V56.7028H70.3259V62.9415C70.3259 65.5865 68.5759 67.4912 65.7066 67.4912C62.8372 67.4912 61.144 65.5865 61.144 62.9415ZM78.0341 57.2131V59.9156C77.3823 59.4484 76.27 59.125 75.3703 59.125C74.5484 59.125 74.1375 59.3909 74.1375 59.7431C74.1375 60.0953 74.598 60.275 75.4128 60.5769C76.8014 61.0728 78.6859 61.734 78.6859 63.9694C78.6859 65.9675 77.1981 67.4481 74.5909 67.4481C73.2448 67.4481 72.0121 67.0528 71.2469 66.5353V63.689C71.9979 64.3072 73.1315 64.8031 74.2296 64.8031C75.1577 64.8031 75.5899 64.4509 75.5899 64.0556C75.5899 63.5453 74.8814 63.3225 74.0383 63.0134C72.926 62.6037 71.169 61.8706 71.169 59.8294C71.1619 57.9894 72.593 56.48 75.1435 56.48C76.27 56.48 77.2831 56.7747 78.0341 57.2131ZM79.4582 56.7028H82.4834V67.2181H79.4582V56.7028ZM93.2381 67.2253H90.3546L86.6209 61.5831H86.6067V67.2253H83.7374V56.7028H86.6209L90.3546 62.2515H90.3688V56.7028H93.2381V67.2253ZM94.4921 56.7028H101.655V59.434H97.5173V60.699H101.237V63.1787H97.5173V64.4869H101.655V67.2181H94.4921V56.7028ZM109.243 57.2131V59.9156C108.591 59.4484 107.479 59.125 106.579 59.125C105.757 59.125 105.346 59.3909 105.346 59.7431C105.346 60.0953 105.807 60.275 106.621 60.5769C108.01 61.0728 109.894 61.734 109.894 63.9694C109.894 65.9675 108.407 67.4481 105.799 67.4481C104.453 67.4481 103.221 67.0528 102.455 66.5353V63.689C103.206 64.3072 104.34 64.8031 105.438 64.8031C106.366 64.8031 106.798 64.4509 106.798 64.0556C106.798 63.5453 106.09 63.3225 105.247 63.0134C104.135 62.6037 102.377 61.8706 102.377 59.8294C102.37 57.9894 103.802 56.48 106.352 56.48C107.479 56.48 108.492 56.7747 109.243 57.2131ZM117.248 57.2131V59.9156C116.597 59.4484 115.484 59.125 114.585 59.125C113.763 59.125 113.352 59.3909 113.352 59.7431C113.352 60.0953 113.812 60.275 114.627 60.5769C116.016 61.0728 117.9 61.734 117.9 63.9694C117.9 65.9675 116.412 67.4481 113.805 67.4481C112.459 67.4481 111.226 67.0528 110.461 66.5353V63.689C111.212 64.3072 112.346 64.8031 113.444 64.8031C114.372 64.8031 114.804 64.4509 114.804 64.0556C114.804 63.5453 114.096 63.3225 113.253 63.0134C112.14 62.6037 110.383 61.8706 110.383 59.8294C110.376 57.9894 111.807 56.48 114.358 56.48C115.484 56.48 116.497 56.7747 117.248 57.2131ZM58.7068 79.2572H61.732V68.7419H58.7068V79.2572ZM72.4867 68.7419H69.6103V74.2906H69.5961L65.8625 68.7419H62.9789V79.2572H65.8554V73.615H65.8695L69.6032 79.2572H72.4867V68.7419ZM77.3611 68.5119C74.8106 68.5119 73.3794 70.0212 73.3794 71.8612C73.3794 73.9025 75.1435 74.6356 76.2488 75.0453C77.0989 75.3544 77.8003 75.5772 77.8003 76.0875C77.8003 76.4828 77.3682 76.835 76.4401 76.835C75.3419 76.835 74.2083 76.339 73.4574 75.7209V78.5672C74.2225 79.0847 75.4553 79.48 76.8014 79.48C79.4086 79.48 80.8964 77.9994 80.8964 76.0012C80.8964 73.7659 79.0118 73.0975 77.6232 72.6087C76.8014 72.314 76.348 72.1415 76.348 71.775C76.348 71.4084 76.766 71.1569 77.5807 71.1569C78.4805 71.1569 79.5928 71.4803 80.2446 71.9475V69.245C79.4936 68.8065 78.4805 68.5119 77.3611 68.5119ZM81.6049 79.2572H84.6301V68.7419H81.6049V79.2572ZM88.9022 76.4828H89.4832C91.0489 76.4828 92.062 75.5844 92.062 74.0031C92.062 72.4219 91.0489 71.509 89.4832 71.509H88.9022V76.4828ZM95.1227 74.0031C95.1227 77.1728 92.7634 79.2572 89.3769 79.2572H85.877V68.7419H89.3769C92.7634 68.7419 95.1227 70.8406 95.1227 74.0031ZM95.9374 79.2572H103.1V76.5259H98.9626V75.2178H102.682V72.7381H98.9626V71.4731H103.1V68.7419H95.9374V79.2572ZM107.861 73.7084C108.626 73.7084 109.221 73.3419 109.221 72.6087C109.221 71.8756 108.626 71.509 107.847 71.509H107.209V73.7084H107.861ZM112.813 79.2572H109.25L107.28 76.0084H107.209V79.2572H104.184V68.7419H107.875C110.468 68.7419 112.275 69.9134 112.275 72.4003C112.275 73.385 111.843 74.8225 110.121 75.5556L112.813 79.2572Z" fill="#F5FFFE"/>
</g>
<path opacity="0.4" d="M151.296 67.5641C152.559 67.4919 153.457 67.3405 154.204 67.0757C154.524 66.9656 154.513 66.9725 154.513 66.8315C154.513 66.7077 154.486 66.6733 154.09 66.2984C152.865 65.1358 151.034 64.1762 149.145 63.7016C148.852 63.6293 148.549 63.5571 148.474 63.5468C148.398 63.533 148.257 63.5089 148.164 63.4883C148.068 63.4711 147.699 63.4298 147.341 63.3989L146.687 63.3404L147.014 63.2132C147.534 63.0102 147.995 62.8176 148.474 62.594C149.141 62.2845 149.103 62.2982 149.172 62.3808C149.355 62.6044 150.002 63.0377 150.501 63.2716C151.719 63.8495 153.023 64.0765 154.823 64.0352C155.749 64.0111 156.461 63.9251 157.308 63.736C158.399 63.4917 159.617 63.0205 160.312 62.57C160.388 62.5218 160.481 62.4633 160.519 62.4427C160.563 62.4186 160.591 62.3602 160.598 62.2845C160.608 62.171 160.594 62.1538 160.426 62.0437C159.996 61.7582 159.221 61.3593 158.812 61.2079C157.655 60.778 156.74 60.5544 155.615 60.4306C155.067 60.3687 154.84 60.3618 153.997 60.379C153.412 60.3893 152.879 60.4168 152.672 60.4444C152.483 60.4753 152.325 60.4925 152.321 60.4925C152.318 60.4891 152.51 60.3549 152.751 60.1933C153.185 59.9044 154.111 59.2233 154.272 59.0754L154.359 58.9963L154.531 59.0995C155.071 59.4194 155.659 59.6292 156.475 59.7874C156.833 59.8596 156.971 59.8665 157.955 59.8665C159.239 59.8665 159.648 59.8149 160.811 59.5157C162.291 59.1373 163.836 58.3841 164.917 57.5208C165.392 57.1424 165.457 57.0702 165.457 56.9154C165.457 56.7916 165.45 56.7813 165.275 56.7056C164.79 56.4924 163.974 56.2619 163.255 56.1381C161.968 55.918 160.199 55.9317 158.953 56.1691C158.213 56.3135 157.466 56.5233 157.008 56.7194C156.84 56.7916 156.823 56.7882 156.919 56.6953C157.074 56.544 157.831 55.6978 158.141 55.3298C158.423 54.9928 158.492 54.9274 158.554 54.9446C159.483 55.2026 160.674 55.1888 161.844 54.9102C162.356 54.7864 163.255 54.4493 163.798 54.1776C164.514 53.8164 165.413 53.2283 166.029 52.7124C166.335 52.4578 167.14 51.6461 167.357 51.371C167.746 50.886 167.97 50.5248 167.97 50.3873C167.97 50.2703 167.959 50.26 167.856 50.2394C167.027 50.0949 165.636 50.1431 164.573 50.3563C164.174 50.4354 163.358 50.6452 163.186 50.714C163.12 50.7415 162.873 50.8344 162.635 50.9273C162.054 51.1508 161.21 51.5739 160.801 51.8456C160.619 51.9694 160.467 52.0657 160.467 52.0623C160.467 52.0554 160.55 51.9144 160.646 51.7459C160.901 51.3159 160.904 51.3091 161.269 50.5971L161.596 49.9608L162.178 49.9401C162.797 49.9195 163.12 49.861 163.719 49.6615C164.091 49.5412 164.607 49.3176 164.883 49.1628C164.996 49.1009 165.089 49.0493 165.096 49.0493C165.175 49.0493 166.228 48.3098 166.576 48.0106C167.612 47.1163 168.496 46.0466 169.095 44.9735C169.35 44.5126 169.463 44.2615 169.711 43.6046C169.738 43.5358 169.759 43.4154 169.759 43.3397C169.759 43.2056 169.756 43.2022 169.639 43.2022C169.243 43.2022 168.262 43.3913 167.694 43.5805C166.022 44.1343 164.463 45.0836 163.282 46.2736C163.076 46.48 162.917 46.6245 162.928 46.6004C163.127 46.0019 163.444 44.8118 163.568 44.1824C163.589 44.0689 163.613 43.9589 163.62 43.9382C163.623 43.9176 163.716 43.8866 163.826 43.8729C164.108 43.8385 164.8 43.6011 165.165 43.412C166.08 42.9408 166.951 42.191 167.715 41.221C168.537 40.1823 169.147 39.0507 169.563 37.8022C169.8 37.0936 170 36.0755 170 35.5871C170 35.4289 170 35.4289 169.883 35.4289C169.649 35.4289 168.648 35.8726 168.09 36.2234C167.316 36.705 166.724 37.183 166.022 37.8847C165.209 38.6999 164.714 39.3568 164.184 40.3302L164.108 40.4678L164.129 40.3302C164.163 40.0894 164.218 38.7687 164.218 38.1461V37.5442L164.459 37.4479C164.783 37.3172 165.351 36.9698 165.664 36.7153C166.159 36.3129 166.631 35.7763 167.116 35.0678C167.794 34.0772 168.365 32.6807 168.654 31.3015C168.833 30.452 168.875 30.0048 168.857 29.0142C168.847 28.5224 168.83 28.0925 168.816 28.0615C168.778 27.9755 168.589 27.9824 168.431 28.0718C167.97 28.3298 167.323 28.8491 166.775 29.4029C165.457 30.734 164.421 32.4985 164.005 34.1219L163.967 34.2767L163.936 34.1391C163.922 34.0634 163.878 33.8227 163.843 33.606C163.726 32.9215 163.675 32.6395 163.551 32.0926L163.43 31.5595L163.506 31.4976C164.115 31.016 164.363 30.7581 164.728 30.2249C165.643 28.8973 166.163 26.8474 166.097 24.8353C166.087 24.4844 166.06 24.051 166.042 23.8722C165.98 23.2944 165.801 22.4964 165.64 22.0665C165.581 21.9117 165.564 21.8945 165.461 21.8842C165.357 21.8738 165.32 21.8979 165.137 22.0733C164.766 22.4345 164.16 23.2359 163.881 23.7346C163.289 24.8009 162.88 25.874 162.673 26.9161C162.604 27.2567 162.504 28.0133 162.491 28.3091L162.48 28.4639L162.398 28.2404C162.322 28.0237 162.212 27.7588 162.081 27.4596C162.043 27.377 162.016 27.3048 162.016 27.2945C162.016 27.2739 161.864 26.9437 161.641 26.4725L161.51 26.1973L161.654 26.0219C162.267 25.2686 162.704 24.0889 162.807 22.9091C162.852 22.407 162.852 21.3614 162.807 20.8386C162.683 19.3596 162.174 17.7602 161.458 16.6252C161.283 16.35 161.272 16.3397 161.149 16.3397C160.997 16.3397 160.952 16.3982 160.656 16.9829C159.968 18.3277 159.593 20.1747 159.658 21.8773C159.669 22.1903 159.693 22.5377 159.71 22.6512C159.727 22.7647 159.751 22.9263 159.762 23.0089L159.782 23.1602L159.621 22.9229C159.307 22.4654 158.905 21.9254 158.533 21.4577C158.172 21.0037 158.161 20.983 158.21 20.9073C158.302 20.7629 158.492 20.247 158.567 19.934C158.705 19.3733 158.746 18.5238 158.678 17.7636C158.519 16.0026 157.604 13.9252 156.482 12.7867C156.275 12.5769 156.241 12.5528 156.131 12.5631C156.017 12.5734 156.007 12.5838 155.931 12.797C155.477 14.0696 155.405 16.0749 155.756 17.6123C155.811 17.8565 156.048 18.6304 156.121 18.8161C156.131 18.8437 156.041 18.7749 155.921 18.6614C155.8 18.5479 155.573 18.3484 155.418 18.2177C155.191 18.0251 155.133 17.9563 155.116 17.8565C155.023 17.3475 154.606 16.5323 154.104 15.8754C153.849 15.5383 153.216 14.9123 152.793 14.5718C152.428 14.2794 151.919 13.9114 151.795 13.8529C151.74 13.8254 151.712 13.8082 151.399 13.6156C151.141 13.4608 150.473 13.141 150.039 12.969C149.172 12.625 148.112 12.3843 147.455 12.3843H147.217V12.5184C147.217 12.742 147.572 13.5468 147.92 14.104C148.36 14.8126 148.752 15.2975 149.451 15.9957C150.976 17.5194 152.841 18.4619 154.338 18.4722C154.506 18.4722 154.537 18.4859 154.682 18.6166C154.93 18.8402 155.615 19.5006 155.615 19.5178C155.615 19.5247 155.477 19.48 155.305 19.418C154.035 18.9434 152.208 18.7714 150.807 18.9915C150.459 19.0466 149.795 19.2048 149.575 19.2873C149.417 19.3458 149.403 19.3596 149.392 19.4731C149.382 19.5866 149.403 19.6141 149.633 19.8342C150.755 20.897 152.331 21.6606 154.066 21.9805C154.565 22.0733 155.721 22.1112 156.176 22.0527C156.547 22.0011 157.05 21.8773 157.332 21.7638L157.545 21.6778L157.7 21.8704C157.838 22.0458 158.33 22.7234 158.478 22.9435C158.795 23.4044 158.977 23.683 158.97 23.6933C158.967 23.6968 158.819 23.6349 158.64 23.5489C158.123 23.3081 157.459 23.1189 156.664 22.9882C156.124 22.8988 154.506 22.8988 153.911 22.9882C153.219 23.0914 152.448 23.3047 151.922 23.5386C151.736 23.6245 151.726 23.6349 151.726 23.7553C151.726 23.8997 151.74 23.9135 152.19 24.2471C153.271 25.0485 154.889 25.6539 156.334 25.7983C156.778 25.843 157.735 25.843 158.144 25.7983C158.681 25.7433 159.318 25.5644 159.724 25.3615C159.817 25.3133 159.903 25.2893 159.916 25.3065C159.975 25.3684 160.522 26.469 160.749 26.9849C161.052 27.6694 161.465 28.7012 161.445 28.7184C161.438 28.7288 161.365 28.6737 161.283 28.5981C160.212 27.5834 158.447 26.8267 156.561 26.5688C156.069 26.5034 154.469 26.5137 154.107 26.5894L153.894 26.6307V26.7786C153.894 26.9058 153.921 26.9643 154.094 27.1982C155.233 28.7184 157.387 30.0564 159.362 30.4657C159.951 30.5861 161.004 30.617 161.5 30.5276C161.679 30.4932 161.868 30.4588 161.916 30.452C162.026 30.4313 162.023 30.4279 162.202 31.1467C162.449 32.127 162.687 33.348 162.756 33.9671C162.769 34.0806 162.787 34.2113 162.797 34.2595L162.814 34.3455L162.752 34.2595C162.239 33.5441 161.393 32.7495 160.639 32.268C160.477 32.1648 160.305 32.0548 160.257 32.0204C160.075 31.8965 159.304 31.5113 158.936 31.36C158.354 31.1227 158.099 31.0435 157.132 30.82C157.05 30.7993 156.781 30.7718 156.537 30.7615L156.096 30.7409V30.8784C156.096 31.0607 156.158 31.2258 156.399 31.7108C156.96 32.8252 157.828 33.8777 158.884 34.7204C160.178 35.7557 161.534 36.3232 162.708 36.3232H162.976L163 36.5192C163.045 36.8941 162.99 39.0473 162.914 39.8659C162.873 40.2923 162.828 40.6741 162.814 40.7188C162.794 40.7842 162.769 40.7429 162.68 40.4746C162.577 40.1685 162.305 39.5735 162.095 39.1951C161.765 38.6036 161.049 37.699 160.457 37.128C159.469 36.1718 158.437 35.4771 157.404 35.0712C157.318 35.0368 157.198 34.9886 157.136 34.9611C156.977 34.8923 156.754 34.8992 156.726 34.9714C156.692 35.0609 156.816 35.9242 156.922 36.3576C157.039 36.815 157.081 36.956 157.229 37.355C157.528 38.1564 157.934 38.9269 158.464 39.7042C158.905 40.3543 159.634 41.1522 160.178 41.589C160.477 41.8264 160.935 42.1256 161.248 42.2838C161.596 42.4592 162.301 42.7206 162.432 42.7206C162.484 42.7206 162.48 42.755 162.408 43.0921C162.312 43.5289 162.112 44.3062 161.992 44.7155C161.944 44.8772 161.885 45.0767 161.861 45.1627C161.796 45.3931 161.692 45.6958 161.455 46.3493L161.241 46.934L161.186 46.5144C160.918 44.5573 159.817 42.4833 158.189 40.8736C157.569 40.2614 157.225 39.9828 156.62 39.6079C156.396 39.4703 156.279 39.4187 156.189 39.4187H156.069L156.045 39.6423C155.997 40.0688 156.048 41.534 156.127 41.9983C156.279 42.9201 156.496 43.6871 156.836 44.5264C156.991 44.9047 157.384 45.7061 157.494 45.8712C157.538 45.9366 157.576 45.9985 157.576 46.0088C157.576 46.0191 157.673 46.1704 157.786 46.3424C158.488 47.3915 159.331 48.1894 160.185 48.6194C160.323 48.6882 160.433 48.7501 160.433 48.7604C160.433 48.7948 160.034 49.5687 159.848 49.892C159.741 50.0812 159.645 50.2531 159.638 50.2703C159.562 50.4629 158.337 52.3581 158.258 52.4063C158.23 52.4235 158.227 52.3994 158.24 52.3237C158.251 52.2652 158.271 51.9591 158.285 51.6392C158.33 50.4526 158.13 49.1697 157.693 47.8799C157.153 46.2874 156.317 44.8669 155.271 43.7731C154.968 43.4601 154.94 43.4395 154.827 43.4498C154.71 43.4601 154.699 43.4704 154.624 43.6837C154.3 44.5883 154.135 45.7336 154.135 47.0544C154.135 49.8748 154.988 52.3375 156.482 53.8371C156.84 54.1982 156.847 54.2085 156.785 54.2773C156.303 54.8345 155.326 55.8354 154.789 56.3273C154.61 56.4889 154.238 56.8122 153.963 57.0393C153.687 57.2697 153.457 57.4658 153.447 57.4761C153.436 57.4864 153.237 57.6412 153.003 57.8166L152.579 58.1399L152.713 57.8854C152.972 57.4073 153.24 56.6575 153.409 55.9489C153.646 54.9687 153.722 54.3186 153.746 53.1251C153.77 51.8938 153.691 51.1233 153.422 49.8748C153.257 49.1009 152.882 48.0278 152.596 47.5015C152.504 47.333 152.479 47.3124 152.369 47.302C152.256 47.2917 152.235 47.3055 152.063 47.5256C149.867 50.3047 148.99 55.1716 150.132 58.2293C150.26 58.5698 150.466 59.0101 150.611 59.2371C150.655 59.3093 150.693 59.3747 150.693 59.3816C150.693 59.3953 150.298 59.6395 149.988 59.8149C149.214 60.2586 148.246 60.7505 147.579 61.0463C147.407 61.1219 147.2 61.2148 147.114 61.2526C147.028 61.2939 146.818 61.3799 146.65 61.4487C146.478 61.5175 146.316 61.5828 146.292 61.5966C146.264 61.6069 146.367 61.4659 146.522 61.2836C146.677 61.1013 146.846 60.8881 146.897 60.8089C147.286 60.2277 147.262 60.2655 147.562 59.6773C148.26 58.2947 148.666 56.6643 148.77 54.8449C148.845 53.4759 148.69 51.9798 148.377 51.0064C148.295 50.7553 148.291 50.7519 148.167 50.7415C148.043 50.7312 148.019 50.7484 147.531 51.2403C146.35 52.4303 145.452 53.9128 144.781 55.7907C144.385 56.9017 144.155 58.2087 144.155 59.3678C144.155 60.324 144.282 61.1047 144.554 61.8305C144.619 62.0128 144.671 62.1641 144.664 62.171C144.619 62.2157 143.36 62.57 142.485 62.7867C141.333 63.0721 139.419 63.3817 138.397 63.447C138.118 63.4642 138.018 63.4849 138.005 63.5193C137.994 63.5468 138.001 63.7979 138.025 64.073C138.046 64.3516 138.073 64.7162 138.084 64.8847L138.108 65.1909L138.524 65.1702C139.646 65.1152 141.553 64.816 143.091 64.4479C143.28 64.3998 143.284 64.4032 143.335 64.4892C143.435 64.6681 143.817 65.1118 144.044 65.3216C145.18 66.3637 146.739 67.0619 148.68 67.3956C149.475 67.5332 150.614 67.6054 151.296 67.5641Z" fill="#E3F8F6"/>
<defs>
<clipPath id="clip0_48769_1930">
<rect width="65.8636" height="23" fill="white" transform="translate(52.0684 56.48)"/>
</clipPath>
</defs>
</svg>
