<svg width="155" height="67" viewBox="0 0 155 67" fill="none" xmlns="http://www.w3.org/2000/svg">
<path opacity="0.4" d="M18.7044 61.855C17.4414 61.7818 16.5431 61.6284 15.7964 61.36C15.4763 61.2485 15.4866 61.2554 15.4866 61.1125C15.4866 60.987 15.5141 60.9522 15.9099 60.5722C17.1351 59.394 18.9659 58.4215 20.8553 57.9405C21.1478 57.8673 21.4507 57.7941 21.5264 57.7836C21.6021 57.7697 21.7432 57.7453 21.8361 57.7243C21.9325 57.7069 22.3007 57.6651 22.6586 57.6337L23.3125 57.5745L22.9856 57.4455C22.4659 57.2398 22.0048 57.0446 21.5264 56.818C20.8588 56.5043 20.8966 56.5183 20.8278 56.6019C20.6454 56.8285 19.9984 57.2677 19.4994 57.5047C18.2811 58.0903 16.9768 58.3204 15.1769 58.2786C14.2511 58.2542 13.5387 58.167 12.6921 57.9753C11.6012 57.7278 10.3829 57.2503 9.68774 56.7936C9.61203 56.7448 9.51911 56.6856 9.48125 56.6647C9.43651 56.6403 9.40898 56.581 9.4021 56.5043C9.39177 56.3893 9.40554 56.3719 9.57417 56.2603C10.0044 55.971 10.7787 55.5666 11.1882 55.4133C12.3446 54.9775 13.26 54.751 14.3853 54.6255C14.9325 54.5627 15.1597 54.5558 16.0028 54.5732C16.5879 54.5837 17.1213 54.6115 17.3278 54.6394C17.5171 54.6708 17.6754 54.6882 17.6788 54.6882C17.6823 54.6847 17.4896 54.5488 17.2487 54.385C16.815 54.0922 15.8893 53.402 15.7275 53.2521L15.6415 53.1719L15.4694 53.2765C14.9291 53.6007 14.3406 53.8133 13.525 53.9736C13.1671 54.0468 13.0294 54.0538 12.0451 54.0538C10.7615 54.0538 10.3519 54.0015 9.18873 53.6983C7.70889 53.3148 6.16367 52.5514 5.08305 51.6765C4.60813 51.2931 4.54274 51.2199 4.54274 51.063C4.54274 50.9375 4.54962 50.9271 4.72514 50.8504C5.21039 50.6343 6.02602 50.4007 6.74528 50.2752C8.03239 50.0521 9.80131 50.0661 11.0471 50.3066C11.787 50.453 12.5338 50.6656 12.9916 50.8643C13.1602 50.9375 13.1774 50.934 13.081 50.8399C12.9262 50.6866 12.169 49.829 11.8593 49.4561C11.5771 49.1145 11.5083 49.0482 11.4463 49.0657C10.5171 49.3271 9.32639 49.3132 8.15629 49.0308C7.64351 48.9053 6.74528 48.5637 6.20153 48.2883C5.4857 47.9223 4.58748 47.3263 3.97146 46.8034C3.66517 46.5454 2.85986 45.7228 2.64305 45.4439C2.25416 44.9524 2.03047 44.5864 2.03047 44.447C2.03047 44.3285 2.04079 44.318 2.14404 44.2971C2.97343 44.1507 4.36378 44.1995 5.4272 44.4156C5.82641 44.4958 6.64204 44.7084 6.81411 44.7782C6.8795 44.806 7.12729 44.9002 7.36475 44.9943C7.94636 45.2208 8.78952 45.6496 9.19905 45.925C9.38145 46.0505 9.53287 46.1481 9.53287 46.1446C9.53287 46.1376 9.45028 45.9947 9.35392 45.8239C9.09925 45.3882 9.09581 45.3812 8.73101 44.6596L8.40407 44.0148L7.82246 43.9939C7.203 43.9729 6.8795 43.9137 6.28068 43.7115C5.90901 43.5895 5.39278 43.3629 5.11747 43.2061C5.0039 43.1433 4.91098 43.091 4.9041 43.091C4.82494 43.091 3.77185 42.3416 3.42426 42.0383C2.38838 41.132 1.50392 40.048 0.905107 38.9604C0.650438 38.4933 0.536869 38.2388 0.289084 37.573C0.261552 37.5033 0.240903 37.3813 0.240903 37.3046C0.240903 37.1687 0.244344 37.1652 0.361354 37.1652C0.757124 37.1652 1.73794 37.3569 2.30579 37.5486C3.97834 38.1099 5.53733 39.0719 6.71775 40.278C6.92424 40.4872 7.08255 40.6336 7.07222 40.6092C6.87262 40.0026 6.556 38.7966 6.43211 38.1587C6.41146 38.0436 6.38737 37.9321 6.38049 37.9112C6.37705 37.8903 6.28413 37.8589 6.174 37.8449C5.8918 37.8101 5.20006 37.5696 4.83527 37.3778C3.91984 36.9003 3.04914 36.1404 2.28514 35.1574C1.46262 34.1047 0.853485 32.9579 0.437067 31.6925C0.199605 30.9745 0 29.9427 0 29.4477C0 29.2873 4.95966e-08 29.2873 0.11701 29.2873C0.35103 29.2873 1.3525 29.737 1.91002 30.0926C2.68435 30.5806 3.27628 31.0651 3.97834 31.7762C4.79053 32.6023 5.2861 33.2681 5.81609 34.2546L5.8918 34.394L5.87115 34.2546C5.83673 34.0106 5.78167 32.672 5.78167 32.0411V31.4311L5.54077 31.3335C5.21727 31.201 4.64943 30.849 4.33625 30.591C3.84068 30.1832 3.3692 29.6394 2.88395 28.9213C2.20598 27.9174 1.6347 26.5022 1.34562 25.1044C1.16666 24.2434 1.12536 23.7903 1.14257 22.7864C1.15289 22.2879 1.1701 21.8522 1.18387 21.8208C1.22172 21.7337 1.411 21.7406 1.56931 21.8313C2.03047 22.0927 2.67746 22.619 3.22466 23.1803C4.54274 24.5293 5.57862 26.3175 5.99504 27.9627L6.0329 28.1196L6.06387 27.9802C6.07764 27.9035 6.12238 27.6595 6.15679 27.4399C6.2738 26.7462 6.32542 26.4604 6.44932 25.9061L6.56977 25.3658L6.49406 25.3031C5.88492 24.8151 5.63713 24.5537 5.27233 24.0134C4.3569 22.6679 3.83724 20.5903 3.90263 18.5511C3.91295 18.1956 3.94048 17.7564 3.95769 17.5751C4.01964 16.9895 4.19859 16.1808 4.36034 15.7451C4.41885 15.5882 4.43606 15.5708 4.5393 15.5603C4.64254 15.5499 4.6804 15.5743 4.8628 15.7521C5.23448 16.1181 5.84018 16.9303 6.11893 17.4357C6.71087 18.5163 7.1204 19.6038 7.32689 20.66C7.39572 21.0051 7.49552 21.772 7.50929 22.0718L7.51961 22.2286L7.60221 22.0021C7.67792 21.7825 7.78805 21.5141 7.91882 21.2108C7.95668 21.1271 7.98421 21.0539 7.98421 21.0435C7.98421 21.0226 8.13564 20.6879 8.35933 20.2104L8.49011 19.9315L8.34557 19.7537C7.73299 18.9904 7.29592 17.7947 7.19267 16.5991C7.14793 16.0902 7.14793 15.0305 7.19267 14.5007C7.31657 13.0018 7.8259 11.3809 8.54173 10.2306C8.71725 9.95172 8.72757 9.94126 8.85146 9.94126C9.00289 9.94126 9.04763 10.0005 9.34359 10.5931C10.0319 11.956 10.407 13.8279 10.3416 15.5534C10.3313 15.8706 10.3072 16.2226 10.29 16.3377C10.2728 16.4527 10.2487 16.6165 10.2384 16.7002L10.2177 16.8536L10.3795 16.613C10.6926 16.1494 11.0953 15.6022 11.467 15.1281C11.8283 14.668 11.8387 14.6471 11.7905 14.5704C11.6976 14.424 11.5083 13.9011 11.4326 13.5839C11.2949 13.0157 11.2536 12.1547 11.3224 11.3844C11.4807 9.59966 12.3962 7.49425 13.5181 6.34045C13.7246 6.12782 13.759 6.10342 13.8691 6.11388C13.9827 6.12434 13.993 6.13479 14.0687 6.35091C14.523 7.64065 14.5953 9.67286 14.2442 11.231C14.1892 11.4785 13.9517 12.2628 13.8795 12.451C13.8691 12.4789 13.9586 12.4092 14.0791 12.2942C14.1995 12.1791 14.4266 11.977 14.5815 11.8445C14.8086 11.6493 14.8672 11.5796 14.8844 11.4785C14.9773 10.9626 15.3937 10.1365 15.8962 9.47068C16.1508 9.12908 16.7841 8.49467 17.2074 8.14957C17.5721 7.85328 18.0815 7.4803 18.2054 7.42105C18.2604 7.39316 18.288 7.37573 18.6011 7.18053C18.8593 7.02367 19.5269 6.69949 19.9605 6.5252C20.8278 6.17662 21.8878 5.93262 22.5451 5.93262H22.7825V6.06856C22.7825 6.29514 22.4281 7.11081 22.0805 7.67551C21.64 8.39358 21.2476 8.88507 20.549 9.59269C19.0244 11.1369 17.1592 12.092 15.6621 12.1024C15.4935 12.1024 15.4625 12.1164 15.318 12.2489C15.0702 12.4754 14.3853 13.1447 14.3853 13.1621C14.3853 13.1691 14.523 13.1238 14.6951 13.061C15.965 12.58 17.7924 12.4057 19.1931 12.6288C19.5407 12.6846 20.2049 12.8449 20.4251 12.9286C20.5834 12.9878 20.5972 13.0018 20.6075 13.1168C20.6179 13.2318 20.5972 13.2597 20.3666 13.4828C19.2447 14.5599 17.6685 15.3338 15.934 15.6579C15.435 15.7521 14.2787 15.7904 13.8244 15.7311C13.4527 15.6789 12.9503 15.5534 12.6681 15.4383L12.4547 15.3512L12.2998 15.5464C12.1622 15.7242 11.67 16.4109 11.522 16.634C11.2054 17.1011 11.023 17.3834 11.0299 17.3939C11.0334 17.3973 11.1813 17.3346 11.3603 17.2475C11.8765 17.0035 12.5407 16.8117 13.3357 16.6793C13.876 16.5886 15.4935 16.5886 16.0889 16.6793C16.7806 16.7839 17.5515 17 18.078 17.237C18.2639 17.3241 18.2742 17.3346 18.2742 17.4566C18.2742 17.603 18.2604 17.617 17.8096 17.9551C16.729 18.7673 15.1115 19.3808 13.6661 19.5272C13.2221 19.5725 12.2654 19.5725 11.8559 19.5272C11.319 19.4714 10.6823 19.2901 10.2762 19.0845C10.1833 19.0357 10.0973 19.0113 10.0835 19.0287C10.025 19.0914 9.47781 20.2069 9.25067 20.7298C8.94782 21.4234 8.53485 22.4692 8.5555 22.4866C8.56238 22.497 8.63465 22.4413 8.71724 22.3646C9.78754 21.3363 11.553 20.5694 13.4389 20.308C13.9311 20.2417 15.5314 20.2522 15.8927 20.3289L16.1061 20.3707V20.5206C16.1061 20.6496 16.0786 20.7088 15.9065 20.9459C14.7674 22.4866 12.613 23.8426 10.6376 24.2574C10.0491 24.3794 8.996 24.4107 8.50043 24.3201C8.32148 24.2853 8.1322 24.2504 8.08401 24.2434C7.97389 24.2225 7.97733 24.219 7.79837 24.9475C7.55059 25.941 7.31313 27.1784 7.2443 27.8059C7.23053 27.9209 7.21332 28.0534 7.203 28.1022L7.18579 28.1893L7.24774 28.1022C7.76052 27.3771 8.60712 26.5719 9.3608 26.0839C9.52255 25.9793 9.69462 25.8678 9.7428 25.8329C9.9252 25.7075 10.6961 25.317 11.0643 25.1637C11.6459 24.9231 11.9006 24.843 12.8677 24.6164C12.9503 24.5955 13.2187 24.5676 13.463 24.5571L13.9035 24.5362V24.6757C13.9035 24.8604 13.8416 25.0277 13.6007 25.5192C13.0397 26.6486 12.1725 27.7153 11.1159 28.5693C9.82196 29.6185 8.46602 30.1936 7.29248 30.1936H7.02404L6.99995 30.3923C6.95521 30.7723 7.01028 32.9544 7.08599 33.784C7.12729 34.2162 7.17202 34.6032 7.18579 34.6485C7.20644 34.7147 7.23053 34.6729 7.32001 34.401C7.42325 34.0908 7.69513 33.4877 7.90506 33.1043C8.23544 32.5047 8.95127 31.588 9.5432 31.0093C10.5309 30.0403 11.5633 29.3361 12.5958 28.9248C12.6818 28.89 12.8023 28.8412 12.8642 28.8133C13.0225 28.7436 13.2462 28.7505 13.2738 28.8237C13.3082 28.9144 13.1843 29.7893 13.0776 30.2285C12.9606 30.6921 12.9193 30.835 12.7713 31.2394C12.4719 32.0516 12.0658 32.8324 11.5358 33.6202C11.0953 34.279 10.3657 35.0877 9.82196 35.5304C9.52255 35.7709 9.06483 36.0742 8.75166 36.2345C8.40407 36.4123 7.69857 36.6772 7.56779 36.6772C7.51617 36.6772 7.51961 36.7121 7.59188 37.0537C7.68825 37.4964 7.88785 38.2841 8.0083 38.699C8.05648 38.8628 8.11499 39.065 8.13908 39.1521C8.20447 39.3857 8.30771 39.6924 8.54517 40.3547L8.75854 40.9473L8.81361 40.522C9.08204 38.5386 10.1833 36.4367 11.8111 34.8053C12.4306 34.1849 12.7747 33.9025 13.3804 33.5226C13.6041 33.3831 13.7211 33.3309 13.8106 33.3309H13.9311L13.9552 33.5574C14.0033 33.9897 13.9517 35.4746 13.8726 35.9452C13.7211 36.8794 13.5043 37.6567 13.1636 38.5072C13.0088 38.8907 12.6164 39.7029 12.5063 39.8702C12.4616 39.9364 12.4237 39.9991 12.4237 40.0096C12.4237 40.0201 12.3273 40.1734 12.2138 40.3477C11.5117 41.4109 10.6686 42.2196 9.81507 42.6553C9.67742 42.725 9.56729 42.7878 9.56729 42.7982C9.56729 42.8331 9.9665 43.6174 10.1523 43.9451C10.259 44.1368 10.3554 44.3111 10.3623 44.3285C10.438 44.5237 11.6631 46.4444 11.7423 46.4932C11.7698 46.5106 11.7733 46.4862 11.7595 46.4095C11.7492 46.3502 11.7285 46.04 11.7148 45.7158C11.67 44.5132 11.8696 43.213 12.3067 41.9059C12.847 40.292 13.6833 38.8523 14.7295 37.7438C15.0323 37.4266 15.0599 37.4057 15.1734 37.4162C15.2905 37.4266 15.3008 37.4371 15.3765 37.6532C15.7 38.57 15.8652 39.7307 15.8652 41.0693C15.8652 43.9276 15.0117 46.4234 13.5181 47.9432C13.1602 48.3092 13.1533 48.3197 13.2152 48.3894C13.6971 48.9541 14.6744 49.9685 15.2113 50.4669C15.3903 50.6308 15.7619 50.9584 16.0373 51.1885C16.3126 51.4221 16.5431 51.6207 16.5535 51.6312C16.5638 51.6417 16.7634 51.7985 16.9974 51.9763L17.4207 52.304L17.2865 52.046C17.0284 51.5615 16.76 50.8016 16.5913 50.0835C16.3539 49.0901 16.2782 48.4313 16.2541 47.2217C16.23 45.9738 16.3091 45.193 16.5776 43.9276C16.7428 43.1433 17.1179 42.0558 17.4035 41.5224C17.4964 41.3516 17.5205 41.3307 17.6307 41.3203C17.7442 41.3098 17.7649 41.3237 17.9369 41.5468C20.1326 44.3633 21.0102 49.2957 19.8676 52.3946C19.7403 52.7397 19.5338 53.1859 19.3892 53.4159C19.3445 53.4891 19.3067 53.5554 19.3067 53.5623C19.3067 53.5763 19.7024 53.8238 20.0122 54.0015C20.7865 54.4512 21.7535 54.9497 22.4212 55.2494C22.5933 55.3261 22.7997 55.4202 22.8858 55.4586C22.9718 55.5004 23.1817 55.5876 23.3504 55.6573C23.5225 55.727 23.6842 55.7932 23.7083 55.8072C23.7358 55.8176 23.6326 55.6747 23.4777 55.49C23.3228 55.3052 23.1542 55.0891 23.1026 55.0089C22.7137 54.4198 22.7378 54.4582 22.4384 53.8621C21.7398 52.4608 21.3337 50.8086 21.2304 48.9646C21.1547 47.5772 21.3096 46.0609 21.6228 45.0744C21.7054 44.82 21.7088 44.8165 21.8327 44.806C21.9566 44.7956 21.9807 44.813 22.4694 45.3115C23.6498 46.5176 24.548 48.0199 25.2191 49.9232C25.6149 51.0491 25.8454 52.3737 25.8454 53.5484C25.8454 54.5174 25.7181 55.3087 25.4462 56.0442C25.3808 56.2289 25.3292 56.3823 25.3361 56.3893C25.3808 56.4346 26.6404 56.7936 27.5146 57.0132C28.6674 57.3026 30.5809 57.6163 31.603 57.6825C31.8818 57.6999 31.9816 57.7209 31.9954 57.7557C32.0057 57.7836 31.9988 58.0381 31.9747 58.3169C31.9541 58.5993 31.9265 58.9688 31.9162 59.1396L31.8921 59.4498L31.4757 59.4289C30.3538 59.3731 28.4472 59.0699 26.9089 58.6969C26.7196 58.6481 26.7161 58.6516 26.6645 58.7387C26.5647 58.92 26.1827 59.3696 25.9556 59.5823C24.8199 60.6385 23.2609 61.3461 21.3199 61.6842C20.5249 61.8236 19.3858 61.8968 18.7044 61.855Z" fill="#E3F8F6"/>
<path d="M48.5827 1.9399V12.5599C48.5827 13.4599 48.7827 13.5799 49.1827 13.6199L50.8627 13.7799V14.8999H43.2627V13.7599L44.9427 13.5999C45.3427 13.5599 45.5427 13.4599 45.5427 12.5599V1.9399H44.1827C43.3827 1.9399 43.0227 2.1599 42.8427 2.8399L42.4427 4.3599H40.7227L40.9427 0.419902H53.1827L53.4027 4.3599H51.6827L51.2827 2.8599C51.1027 2.1799 50.7627 1.9399 49.9627 1.9399H48.5827ZM58.303 7.1599V12.2199C58.303 13.5199 58.403 13.6999 59.063 13.7799L59.923 13.8799V14.8999H54.183V13.8799L54.583 13.8199C55.303 13.7199 55.363 13.5599 55.363 12.2199V7.2399C55.363 6.3199 55.243 6.0399 54.523 5.8999L54.103 5.8199L54.263 4.6999L57.783 4.3599L58.003 4.4799L58.163 5.8999C58.863 4.9199 59.723 4.2199 60.843 4.2199C61.223 4.2199 61.623 4.2799 61.983 4.4199L61.783 7.5799H61.523C60.663 7.1199 59.983 6.8799 59.443 6.8199C58.963 6.7799 58.583 6.9799 58.303 7.1599ZM73.2888 4.4799V12.3999C73.2888 13.4199 73.3488 13.6399 74.0688 13.6999L74.4288 13.7599L74.3688 14.7999L70.9688 15.0999L70.7488 14.9799L70.5288 13.6599C69.7088 14.5199 68.6488 15.1399 67.3088 15.1399C65.2688 15.1399 64.2288 14.0999 64.2288 11.6399V7.4199C64.2288 6.2399 64.0888 6.0599 63.3688 5.9199L62.9488 5.8199L63.1088 4.7199L66.9488 4.3599L67.1688 4.5199V11.2599C67.1688 12.4999 67.5888 13.0799 68.5888 13.0799C69.2488 13.0799 69.9088 12.8199 70.3488 12.5199V7.3399C70.3488 6.1599 70.1288 6.0399 69.4088 5.8999L69.0888 5.8399L69.2488 4.6999L73.0688 4.3599L73.2888 4.4799ZM83.6321 7.6399L81.9321 7.4599L81.6721 6.3999C81.5521 5.9999 81.2121 5.7999 80.2921 5.7999C79.1921 5.7999 78.5521 6.1599 78.5521 6.9399C78.5521 9.1599 84.2121 7.4799 84.2121 11.5199C84.2121 13.6999 82.5721 15.1399 79.6321 15.1399C77.6521 15.1399 76.2521 14.6799 75.7921 14.3999L76.0521 11.7199H77.7121L77.9321 12.7999C78.0521 13.2799 78.4321 13.5999 79.7321 13.5999C80.7121 13.5999 81.4921 13.2799 81.4921 12.3799C81.4921 9.9599 75.8921 11.9599 75.8921 7.7199C75.8921 5.3999 77.8521 4.2199 80.2921 4.2199C81.8521 4.2199 83.1521 4.6199 83.7521 4.9799L83.6321 7.6399ZM92.0177 12.9799L92.4777 14.2799C91.8177 14.7199 90.5577 15.1399 89.3377 15.1399C87.1377 15.1399 86.3377 14.0599 86.3377 11.8399V5.9999H84.8977L85.0577 4.6399L86.4977 4.4199L87.7777 1.3999H89.2777V4.4399H92.0177L91.8177 5.9999H89.2777V11.5199C89.2777 12.7199 89.4577 13.3599 90.4377 13.3599C91.1177 13.3599 91.6577 13.1399 92.0177 12.9799ZM101.298 12.5399L101.978 13.7399C100.918 14.6399 99.4577 15.1399 98.0377 15.1399C94.3977 15.1399 92.8777 12.7399 92.8777 9.6399C92.8777 5.9399 95.2377 4.2199 97.8577 4.2199C100.338 4.2199 101.978 5.5999 101.978 9.0999C101.978 9.3799 101.958 9.7799 101.918 10.1799H95.9977C96.0577 12.1799 97.0177 13.2799 98.7177 13.2799C99.5977 13.2799 100.338 13.0599 101.298 12.5399ZM95.9977 8.6199H99.1377C99.2177 6.6399 98.6777 5.8599 97.7177 5.8599C96.7177 5.8599 96.0577 6.6399 95.9977 8.6199ZM114.386 14.8999H110.786L110.486 13.6599C109.786 14.5599 108.806 15.1399 107.446 15.1399C105.086 15.1399 103.406 13.5399 103.406 9.9799C103.406 5.7799 105.406 4.2199 107.786 4.2199C108.846 4.2199 109.666 4.5999 110.246 5.2199V2.9999C110.246 1.9999 110.146 1.7199 109.446 1.5599L108.926 1.4399L109.066 0.439901L112.666 -9.89437e-05L113.186 0.259901V12.4199C113.186 13.4599 113.246 13.6799 113.986 13.8199L114.386 13.8799V14.8999ZM110.246 12.5199V6.7399C109.826 6.3799 109.146 6.1399 108.586 6.1399C107.226 6.1399 106.486 7.1399 106.486 9.7199C106.486 12.1199 107.166 13.1199 108.566 13.1199C109.186 13.1199 109.846 12.8799 110.246 12.5199Z" fill="#F5FFFE"/>
<path d="M50.9411 32.8999V25.8999H53.6111C54.9411 25.8999 56.0911 26.4499 56.0911 28.0399C56.0911 29.5999 54.9211 30.2699 53.6011 30.2699H52.0411V32.8999H50.9411ZM53.5411 26.8599H52.0411V29.3399H53.5411C54.2811 29.3399 54.9511 29.0199 54.9511 28.0899C54.9511 27.1599 54.3011 26.8599 53.5411 26.8599ZM58.1251 25.8999H60.8251C62.2051 25.8999 63.3051 26.4299 63.3051 27.8799C63.3051 28.9499 62.6151 29.6399 61.5751 29.7899C61.9751 29.9599 62.2451 30.2899 62.5251 30.8099L63.6251 32.8999H62.3951L61.4251 31.0499C61.0651 30.3799 60.7951 30.1399 60.0851 30.1399H59.2251V32.8999H58.1251V25.8999ZM60.7151 29.1999C61.6251 29.1999 62.1651 28.7799 62.1651 27.9799C62.1651 27.2099 61.6451 26.8499 60.7651 26.8499H59.2251V29.1999H60.7151ZM68.3439 33.0399C66.4639 33.0399 65.2439 31.6899 65.2439 29.3999C65.2439 27.0899 66.4639 25.7599 68.3439 25.7599C70.2139 25.7599 71.4339 27.0799 71.4339 29.3999C71.4339 31.6899 70.2139 33.0399 68.3439 33.0399ZM68.3439 32.0499C69.4939 32.0499 70.2839 31.1199 70.2839 29.3999C70.2839 27.6599 69.4939 26.7499 68.3439 26.7499C67.1839 26.7499 66.3939 27.6599 66.3939 29.3999C66.3939 31.1199 67.1839 32.0499 68.3439 32.0499ZM78.8543 25.8999L76.3943 32.8999H75.2343L72.7843 25.8999H73.9743L75.8243 31.4999L77.6643 25.8999H78.8543ZM80.7903 25.8999H81.8903V32.8999H80.7903V25.8999ZM86.5617 25.8999C88.8517 25.8999 89.9417 27.2799 89.9417 29.3999C89.9417 31.5199 88.8117 32.8999 86.5417 32.8999H84.3317V25.8999H86.5617ZM86.4717 31.9199C88.0717 31.9199 88.7817 30.9999 88.7817 29.3899C88.7817 27.7799 88.0717 26.8699 86.4917 26.8699H85.4317V31.9199H86.4717ZM96.7916 31.9299V32.8999H92.1016V25.8999H96.7916V26.8699H93.2016V28.8199H95.8516V29.7499H93.2016V31.9299H96.7916ZM98.9927 25.8999H101.693C103.073 25.8999 104.173 26.4299 104.173 27.8799C104.173 28.9499 103.483 29.6399 102.443 29.7899C102.843 29.9599 103.113 30.2899 103.393 30.8099L104.493 32.8999H103.263L102.293 31.0499C101.933 30.3799 101.663 30.1399 100.953 30.1399H100.093V32.8999H98.9927V25.8999ZM101.583 29.1999C102.493 29.1999 103.033 28.7799 103.033 27.9799C103.033 27.2099 102.513 26.8499 101.633 26.8499H100.093V29.1999H101.583Z" fill="#E3F8F6"/>
<path d="M65.9922 47.3364C66.3969 47.2885 66.8064 47.2864 67.2197 47.3501C67.589 47.4067 67.9504 47.4832 68.2969 47.6089C68.5617 47.7048 68.8187 47.8424 69.0537 47.9995C69.3099 48.1716 69.5463 48.3752 69.7373 48.6274C69.9416 48.8977 70.1242 49.1749 70.2656 49.4868C70.4149 49.8169 70.5059 50.1604 70.5986 50.5054C70.6348 50.6413 70.6345 50.7868 70.6494 50.9282C70.6636 51.0625 70.6753 51.197 70.6895 51.3306C70.757 51.9483 70.7111 52.5547 70.5469 53.1567C70.4235 53.6069 70.2584 54.035 70.0117 54.4302C69.6313 55.0369 69.1267 55.5135 68.4814 55.8286C68.0691 56.0297 67.6347 56.1652 67.1729 56.2085C66.8215 56.2415 66.4706 56.2246 66.1201 56.2388C65.8459 56.2498 65.5898 56.1798 65.3281 56.1177C64.8306 55.999 64.3788 55.7849 63.9717 55.48C63.6055 55.2049 63.3069 54.8633 63.0625 54.4751C62.753 53.9848 62.607 53.4361 62.4766 52.8813C62.3933 52.5253 62.4 52.1637 62.3984 51.8022L62.3965 51.8013C62.3965 51.5986 62.3861 51.395 62.3994 51.1938C62.4104 51.0353 62.4473 50.8783 62.4795 50.7222C62.5974 50.147 62.8023 49.6069 63.1299 49.1157C63.3075 48.8493 63.5004 48.5971 63.7314 48.3755C64.0788 48.0423 64.4755 47.7877 64.918 47.5991C65.2629 47.4514 65.6284 47.3796 65.9922 47.3364ZM90.9932 47.2759C91.386 47.3207 91.7787 47.3895 92.1377 47.5591C92.4245 47.6942 92.6834 47.8775 92.9121 48.1069C93.092 48.2876 93.2488 48.4799 93.3809 48.6968C93.6299 49.1069 93.7733 49.5513 93.833 50.0259C93.8676 50.2992 93.9158 50.572 93.9434 50.8462C93.9591 51.0081 93.9463 51.173 93.9463 51.3647H88.9941C88.9941 51.4629 88.9904 51.5471 88.9951 51.6304C89.0077 51.8425 88.9949 52.0617 89.0459 52.2651C89.1315 52.6085 89.1813 52.9647 89.3525 53.2837C89.4013 53.3741 89.4304 53.4742 89.4814 53.563C89.7683 54.0628 90.1874 54.4258 90.7021 54.6694C90.8829 54.7551 91.0933 54.784 91.293 54.8257C91.4139 54.8515 91.5399 54.8567 91.6631 54.8638C92.2838 54.899 92.8589 54.7514 93.3877 54.4253C93.4207 54.4049 93.4557 54.3857 93.4902 54.3677C93.6345 54.2956 93.7169 54.2992 93.793 54.3813C93.8865 54.4819 93.915 54.6381 93.8545 54.7466C93.8293 54.7921 93.7943 54.8323 93.7598 54.8716C93.41 55.2606 93.0078 55.5862 92.541 55.8228C92.1797 56.0066 91.795 56.1476 91.3936 56.1948C91.0124 56.2396 90.6234 56.2205 90.2383 56.2339C89.766 56.2511 89.3266 56.1064 88.9102 55.9194C88.4561 55.7151 88.0498 55.4262 87.7041 55.0562C87.1076 54.4164 86.7425 53.6624 86.5664 52.812C86.4832 52.4081 86.4843 51.9968 86.5 51.5874C86.511 51.3086 86.5372 51.0305 86.5654 50.7524C86.5741 50.6716 86.6213 50.596 86.6387 50.5151C86.7385 50.0452 86.9121 49.6037 87.1494 49.188C87.36 48.8194 87.6258 48.4967 87.9512 48.2192C88.2136 47.9953 88.4857 47.7897 88.8047 47.6577C89.1834 47.5006 89.5738 47.3829 89.9824 47.3208C90.3195 47.2697 90.6553 47.2374 90.9932 47.2759ZM96.5518 47.4438C97.1466 47.2474 97.7549 47.162 98.3789 47.2358C98.7946 47.2853 99.2119 47.3346 99.6221 47.4155C99.8821 47.4666 100.131 47.5767 100.398 47.6655C100.369 48.44 100.513 49.1973 100.455 49.9858C100.321 50.0226 100.199 50.0565 100.052 50.0972C99.9535 49.867 99.8457 49.658 99.7734 49.438C99.6187 48.9674 99.3599 48.5646 98.9609 48.2817C98.6254 48.0436 98.2379 47.9022 97.8057 47.98C97.5371 48.0288 97.3374 48.181 97.1709 48.3853C96.8913 48.7294 96.9011 49.1303 96.9883 49.5278C97.0166 49.6567 97.1315 49.7741 97.2266 49.8794C97.3821 50.0522 97.577 50.1772 97.7773 50.2974C98.1789 50.5379 98.6156 50.698 99.0439 50.8804C99.4204 51.0407 99.7756 51.2435 100.099 51.4966C100.304 51.6569 100.494 51.8429 100.62 52.0708C100.715 52.2421 100.794 52.4326 100.832 52.6235C100.894 52.9316 100.921 53.2472 100.917 53.564C100.913 53.8687 100.845 54.154 100.734 54.436C100.482 55.0733 100.036 55.5209 99.4229 55.8101C99.0276 55.9971 98.6197 56.152 98.1797 56.1851C97.9653 56.2008 97.7482 56.1819 97.5322 56.1851C97.1471 56.1898 96.7613 56.2079 96.377 56.2017C96.2137 56.1985 96.0505 56.1546 95.8896 56.1177C95.5816 56.0469 95.2745 55.9715 94.9688 55.8921C94.8407 55.8583 94.7161 55.807 94.585 55.7622C94.5771 55.727 94.5621 55.6902 94.5605 55.6519C94.5425 55.0891 94.5251 54.5271 94.5117 53.9644C94.5062 53.7482 94.5145 53.532 94.5059 53.3159C94.5019 53.2051 94.5386 53.1447 94.6494 53.1274C94.7121 53.1172 94.7732 53.0884 94.8359 53.0806C94.9609 53.0648 95.035 53.1124 95.0869 53.2231C95.1938 53.4518 95.2932 53.6855 95.4111 53.9087C95.6084 54.2812 95.8528 54.617 96.2041 54.8638C96.4391 55.0288 96.6909 55.1409 96.9824 55.144C97.1396 55.1456 97.2968 55.157 97.4531 55.1499C98.0598 55.1224 98.7813 54.4635 98.5205 53.6392C98.4459 53.4035 98.3148 53.2296 98.1201 53.0913C97.7406 52.8218 97.3152 52.6421 96.8838 52.4771C96.461 52.316 96.0395 52.1545 95.6592 51.8999C95.3041 51.6618 95.0346 51.3489 94.8594 50.9663C94.7007 50.6198 94.653 50.2448 94.6553 49.8599C94.6584 49.3946 94.7915 48.9788 95.0352 48.5874C95.3951 48.0092 95.9162 47.6536 96.5518 47.4438ZM80.6689 43.9077C80.6705 44.6473 80.6713 45.3879 80.6729 46.1274C80.6729 46.6382 80.6732 47.1489 80.6748 47.6597C80.6748 47.691 80.6795 47.7217 80.6826 47.771C80.8075 47.7278 80.9238 47.6966 81.0322 47.6479C81.598 47.3965 82.1985 47.3346 82.8027 47.3794C83.393 47.4234 83.9272 47.6473 84.4043 48.0112C84.8325 48.3381 85.1719 48.737 85.4053 49.2163C85.5522 49.5188 85.6784 49.8381 85.7617 50.1626C85.8315 50.4358 85.838 50.727 85.8506 51.0112C85.8647 51.3445 85.8736 51.6807 85.8516 52.0132C85.828 52.3722 85.772 52.7296 85.6377 53.0698C85.5701 53.2396 85.5265 53.419 85.4629 53.5903C85.3324 53.9393 85.1396 54.2548 84.9102 54.5464C84.6108 54.9267 84.2455 55.2381 83.833 55.4888C83.3829 55.7621 82.8942 55.9429 82.3789 56.0513C81.8289 56.1676 81.2716 56.1347 80.7168 56.1284C80.3411 56.1245 79.9668 56.0859 79.5967 56.0112C79.1684 55.9248 78.7363 55.8498 78.3057 55.7759C78.2234 55.7617 78.1912 55.7268 78.1904 55.6499V55.5522C78.192 53.8697 78.1922 52.1869 78.1953 50.5044C78.1953 50.2043 78.2215 49.9031 78.2168 49.603C78.2003 48.6866 78.1759 47.7704 78.1523 46.854C78.1445 46.5666 78.1433 46.2776 78.1143 45.9917C78.086 45.7096 78.0236 45.4313 77.835 45.2026C77.8068 45.1682 77.7764 45.125 77.7373 45.1108C77.5881 45.0551 77.4378 44.9909 77.2822 44.9634C76.9569 44.9044 77.0154 44.8836 77.0146 44.6313C77.0147 44.6063 77.0246 44.5811 77.0332 44.5396C77.2955 44.4869 77.5603 44.433 77.8242 44.3804C78.2855 44.2876 78.7461 44.1914 79.209 44.105C79.5901 44.0335 79.9728 43.9717 80.3555 43.9097C80.4316 43.8971 80.5112 43.903 80.5889 43.8999C80.6156 43.9023 80.6422 43.9054 80.6689 43.9077ZM63.6455 44.3159C63.6494 44.6428 63.6506 44.9705 63.6553 45.2974C63.6647 46.029 63.6761 46.761 63.6855 47.4927C63.6855 47.5176 63.6783 47.5434 63.6729 47.5854C63.5307 47.6161 63.3886 47.6543 63.2441 47.6763C63.0893 47.6998 63.019 47.6398 62.9482 47.4653C62.832 47.1786 62.7295 46.8843 62.5889 46.6108C62.4616 46.3635 62.3005 46.1306 62.1348 45.9067C61.9619 45.6743 61.7264 45.5107 61.4766 45.3638C61.1213 45.1539 60.7352 45.0907 60.332 45.0923C59.8078 45.0939 59.284 45.0925 58.7598 45.0933C58.6963 45.0933 58.6325 45.0979 58.5557 45.1011C58.4653 46.6147 58.4529 48.1177 58.4639 49.647C58.6359 49.647 58.8032 49.6525 58.9697 49.647C59.1788 49.6399 59.3902 49.6327 59.5977 49.6099C60.1852 49.5446 60.4407 49.3556 60.667 48.8237C60.7731 48.5738 60.8385 48.3062 60.9258 48.0366H61.4521V52.1147H60.917C60.9075 51.8327 60.8033 51.5797 60.709 51.3228C60.5518 50.8947 60.2543 50.6252 59.8066 50.5552C59.5237 50.5112 59.233 50.5131 58.9453 50.5005C58.7908 50.4935 58.6354 50.4995 58.4746 50.4995C58.4691 50.544 58.462 50.569 58.4619 50.5933C58.4635 51.2345 58.4573 51.8768 58.4707 52.5181C58.4786 52.8898 58.5316 53.2606 58.541 53.6323C58.5489 53.9645 58.6126 54.2873 58.7139 54.5952C58.8176 54.9104 59.002 55.1978 59.3564 55.2944C59.5817 55.3564 59.8156 55.3892 60.0439 55.4409C60.1232 55.459 60.2373 55.4498 60.2588 55.5483C60.2832 55.6607 60.2762 55.7816 60.2715 55.8979C60.2704 55.9231 60.2216 55.9602 60.1895 55.9673C60.0898 55.99 59.987 56.0141 59.8857 56.0142C58.4586 56.0118 57.0314 56.0052 55.6035 56.0005C55.1776 55.9989 54.7521 56.0005 54.3262 56.0005C54.2564 56.0005 54.1864 55.9923 54.1025 55.9868C54.0947 55.8683 54.0815 55.7644 54.083 55.6616C54.0846 55.5203 54.1177 55.4798 54.2588 55.4429C54.4026 55.4051 54.5519 55.384 54.6934 55.3384C54.9007 55.2716 55.1008 55.2021 55.2666 55.0356C55.4623 54.8392 55.5393 54.599 55.5967 54.3491C55.6422 54.1511 55.662 53.9442 55.6738 53.7407C55.7045 53.212 55.742 52.6833 55.7451 52.1538C55.7545 50.6999 55.7538 49.2464 55.7451 47.7925C55.7428 47.3351 55.7168 46.877 55.6807 46.4204C55.6602 46.1595 55.6052 45.901 55.5557 45.644C55.5195 45.4571 55.4258 45.2927 55.3135 45.1411C55.1682 44.9456 54.9504 44.8731 54.7305 44.8149C54.5277 44.7615 54.3193 44.7262 54.0938 44.6782L54.0947 44.6772V44.1606H63.6328C63.6375 44.2149 63.6447 44.2656 63.6455 44.3159ZM76.0742 47.3696C76.4026 47.2369 76.7551 47.2655 77.0977 47.3032C77.2531 47.3206 77.4053 47.3867 77.5537 47.4448C77.7375 47.5163 77.7461 47.5332 77.6816 47.7163C77.5103 48.1996 77.334 48.6807 77.1572 49.1616C77.0873 49.3518 77.0137 49.5414 76.9375 49.73C76.9163 49.7818 76.88 49.8276 76.8486 49.8794C76.6632 49.8079 76.4936 49.7319 76.3184 49.6753C75.9954 49.5708 75.6748 49.4518 75.3252 49.4839C75.0273 49.5114 74.7486 49.5927 74.4971 49.7593C74.3981 49.8245 74.3467 49.9107 74.3467 50.0317C74.3451 50.5881 74.3397 51.1444 74.3389 51.7007C74.3381 52.0866 74.3316 52.4738 74.3457 52.8589C74.3638 53.3673 74.4042 53.8751 74.4238 54.3843C74.4325 54.605 74.4574 54.8179 74.5596 55.0151C74.6562 55.2006 74.7861 55.3336 75.0195 55.3462C75.2575 55.3588 75.4941 55.4038 75.7471 55.436V55.9106C75.6174 55.946 70.8892 55.9548 70.666 55.9194V55.4478C70.868 55.3983 71.0602 55.3582 71.248 55.3032C71.4418 55.2458 71.5543 55.1057 71.6367 54.9204C71.7466 54.673 71.7598 54.4103 71.7842 54.1519C71.8164 53.8141 71.8148 53.4724 71.8242 53.1323C71.836 52.7206 71.8531 52.3078 71.8516 51.896C71.8492 51.3003 71.8437 50.704 71.8193 50.1099C71.8052 49.7705 71.7605 49.4307 71.707 49.0952C71.6716 48.8706 71.5857 48.6529 71.3398 48.5728C71.212 48.5312 71.0755 48.5088 70.9414 48.4985C70.7174 48.4828 70.653 48.4225 70.668 48.2017C70.6719 48.1507 70.6841 48.0996 70.6943 48.0376C71.9108 47.7681 73.1321 47.5309 74.3643 47.3101C74.4302 47.6078 74.3415 47.8812 74.3438 48.1577C74.3461 48.432 74.3278 48.7067 74.3184 48.981C74.3262 49.0029 74.333 49.0244 74.3408 49.0464C74.3558 49.0244 74.3718 49.003 74.3867 48.981H74.3848C74.5726 48.6147 74.8188 48.2935 75.1025 47.9956C75.3776 47.7073 75.7144 47.5158 76.0742 47.3696ZM81.3008 48.4517C81.1145 48.4752 80.9272 48.4835 80.7598 48.5581L80.7578 48.5571C80.7413 48.9523 80.7188 49.3358 80.7109 49.7192C80.7039 50.0391 80.7135 50.3605 80.7158 50.6812C80.7245 52.0407 80.7328 53.3997 80.7422 54.7593C80.743 54.9164 80.7445 55.0737 80.7578 55.23C80.7657 55.3171 80.792 55.4063 80.8242 55.4888C80.8565 55.5717 80.9208 55.6168 81.0195 55.606C81.1413 55.5918 81.2651 55.5841 81.3877 55.5786C81.7515 55.5621 82.0198 55.3663 82.2461 55.1069C82.4911 54.8257 82.6561 54.4965 82.7842 54.147C82.9579 53.6731 83.1039 53.1867 83.1416 52.686C83.1856 52.0937 83.1681 51.4966 83.1768 50.9019C83.1768 50.8759 83.1752 50.8489 83.1689 50.8237C83.0959 50.5384 83.0635 50.2461 82.959 49.9663C82.8042 49.5515 82.635 49.1517 82.2988 48.8452C82.0152 48.5867 81.7093 48.3992 81.3008 48.4517ZM67.1367 48.2212C66.6958 47.8197 66.1215 47.8578 65.7568 48.2759C65.496 48.5752 65.3556 48.947 65.2637 49.3335C65.1984 49.6078 65.1157 49.8785 65.1016 50.1646C65.0906 50.3838 65.0395 50.6014 65.0332 50.8198C65.0222 51.2379 65.0236 51.6568 65.0322 52.0757C65.0417 52.548 65.0445 53.0229 65.1553 53.4858C65.2417 53.848 65.3082 54.2189 65.4668 54.5591C65.598 54.8412 65.7413 55.1194 65.9873 55.3276C66.2419 55.5429 66.5316 55.6356 66.8506 55.5366C67.1875 55.4321 67.4645 55.2248 67.6201 54.9028C67.7608 54.612 67.8573 54.3052 67.9131 53.979C67.9681 53.657 68.0068 53.3333 68.0469 53.0112C68.0893 52.6688 68.083 52.3198 68.0947 52.0464L68.0869 51.6333C68.0871 51.2312 68.0985 50.8597 68.0195 50.4907C67.97 50.2597 67.9831 50.0142 67.9297 49.7847C67.7937 49.2016 67.6003 48.6439 67.1367 48.2212ZM90.7275 47.9546C90.4407 47.854 90.1869 47.9027 89.959 48.1108C89.5865 48.4511 89.4146 48.8981 89.2842 49.3657C89.226 49.574 89.2042 49.7928 89.1523 50.0034C89.0989 50.2203 89.1088 50.4369 89.1104 50.6655C89.4655 50.6655 89.8045 50.6781 90.1416 50.6616C90.5754 50.6404 91.0064 50.5609 91.4434 50.5806C91.4614 50.5814 91.4805 50.5751 91.5127 50.5688L91.5137 50.5679C91.5207 50.5365 91.5293 50.5174 91.5293 50.4985C91.5317 50.0302 91.4953 49.5642 91.3955 49.1069C91.3318 48.8138 91.263 48.5161 91.083 48.2622C90.9887 48.1294 90.8854 48.0104 90.7275 47.9546Z" fill="white"/>
<path d="M74.3858 48.981C74.3708 49.003 74.3551 49.0242 74.3402 49.0462C74.3323 49.0242 74.3252 49.003 74.3174 48.981C74.3402 48.981 74.363 48.981 74.3858 48.981Z" fill="white"/>
<path d="M82.4365 59.1499C83.2374 59.2018 83.9397 59.4754 84.4844 60.0884C84.5008 60.1072 84.5124 60.1308 84.5381 60.1714C84.3149 60.3985 84.0601 60.5892 83.8447 60.7856C83.7316 60.6875 83.6246 60.6014 83.5264 60.5063C83.0147 60.0115 82.1933 59.8883 81.5576 60.2104C81.3268 60.3276 81.1634 60.5101 81.04 60.73C81.0103 60.7834 81.0104 60.8549 81.001 60.9185C80.9436 61.2839 81.0467 61.598 81.3398 61.8228C81.5245 61.965 81.7314 62.0888 81.9443 62.1831C82.3772 62.3756 82.8251 62.533 83.2588 62.7231C83.6823 62.9086 84.0693 63.1573 84.3506 63.5337C84.5391 63.7859 84.6676 64.0673 84.6748 64.394C84.6787 64.5873 84.7305 64.7833 84.7148 64.9741C84.6457 65.8323 84.1919 66.4138 83.3975 66.7329C82.9676 66.905 82.5177 66.9137 82.0635 66.8901C81.3381 66.8524 80.7042 66.5912 80.1611 66.1118C79.9741 65.9468 79.8206 65.7538 79.7051 65.5181H79.7041C79.9382 65.3452 80.1525 65.1842 80.3701 65.0278C80.4998 64.9351 80.5295 64.9401 80.623 65.0698C80.8423 65.3731 81.1267 65.6056 81.4551 65.7729C81.7773 65.9372 82.134 65.9707 82.4932 65.9565C82.8154 65.9432 83.1075 65.8438 83.3652 65.6489C83.5025 65.5445 83.5956 65.4108 83.6553 65.2437C83.9516 64.4177 83.3992 63.8833 82.875 63.6821C82.4955 63.536 82.1033 63.4234 81.7246 63.2749C81.3301 63.1209 80.9591 62.9152 80.6377 62.6362C80.1191 62.1867 79.9516 61.5962 80.0176 60.936C80.1065 60.0553 80.6446 59.5444 81.4492 59.2749C81.7681 59.1681 82.1004 59.1279 82.4365 59.1499ZM89.1816 59.106C89.5423 59.0761 89.8913 59.1146 90.248 59.1821C91.2438 59.3715 92.0349 59.8756 92.6377 60.6733C92.9543 61.093 93.1359 61.5794 93.249 62.0972C93.3732 62.6677 93.3817 63.2332 93.2725 63.8022C93.2347 63.9986 93.174 64.193 93.1064 64.3823C92.9972 64.6894 92.8404 64.9744 92.6621 65.2485C92.1898 65.9755 91.5244 66.4386 90.707 66.6987C90.1679 66.87 89.6167 66.8769 89.0596 66.8306C88.7587 66.8054 88.4695 66.7257 88.1836 66.644C87.8582 66.5505 87.5726 66.3606 87.292 66.1743C86.746 65.8113 86.35 65.3132 86.042 64.7397C85.7913 64.273 85.6883 63.7683 85.6475 63.2466C85.6388 63.1358 85.634 63.0244 85.627 62.9136C85.6152 62.4217 85.7204 61.9437 85.9043 61.5005C86.1809 60.8349 86.6016 60.2622 87.2012 59.8354C87.7969 59.4126 88.4531 59.1673 89.1816 59.106ZM61.5469 66.7114C61.4005 66.7507 60.7772 66.7599 60.499 66.7261C60.1933 66.0212 59.8827 65.3069 59.5684 64.5815C59.5207 64.5776 59.4699 64.5708 59.4199 64.5708C58.3526 64.5692 57.2849 64.5677 56.2168 64.5669C56.0566 64.5669 56.0474 64.5855 55.9814 64.7378C55.8101 65.1331 55.6246 65.5214 55.4541 65.9175C55.341 66.1799 55.2442 66.4493 55.1357 66.729H54.083C55.1831 64.2144 56.2782 61.7126 57.3799 59.1948H58.21C59.322 61.7003 60.434 64.2059 61.5469 66.7114ZM64.9629 59.2036C65.314 59.21 65.6581 59.2857 65.999 59.3862C66.6937 59.5906 67.2803 59.96 67.7754 60.481C68.0386 60.7576 68.2581 61.0614 68.3682 61.437C68.4365 61.6712 68.554 61.894 68.5996 62.1313C68.6884 62.5894 68.7195 63.0468 68.6504 63.5229C68.5278 64.3732 68.156 65.0818 67.5596 65.6743C67.0418 66.188 66.4015 66.4917 65.6914 66.6528C65.403 66.7181 65.1101 66.7446 64.8154 66.7446H62.6758C62.6381 66.7446 62.6 66.7409 62.5498 66.7378C62.5467 66.6837 62.542 66.6401 62.542 66.5962V59.3511C62.542 59.3118 62.5465 59.2732 62.5488 59.2339C62.5613 59.2222 62.5745 59.2113 62.5869 59.1997V59.1968C63.3783 59.1968 64.1715 59.1887 64.9629 59.2036ZM97.2881 59.1909C97.6473 59.1909 98.0025 59.2413 98.335 59.3726C98.884 59.5895 99.2796 59.9617 99.458 60.5454C99.5342 60.7945 99.5977 61.0441 99.5977 61.3042C99.5977 61.8771 99.4141 62.3824 99.0117 62.7974C98.7618 63.0551 98.443 63.1863 98.1035 63.2759C98.0171 63.2987 97.9298 63.3158 97.8096 63.3433C98.7699 64.478 99.7121 65.5916 100.687 66.7437H100.391C100.103 66.7437 99.814 66.7407 99.5264 66.7446C99.4409 66.7461 99.3817 66.7195 99.3252 66.6528C98.8413 66.077 98.3544 65.5034 97.8682 64.9292C97.4501 64.4349 97.0335 63.9377 96.6123 63.4458C96.5691 63.3955 96.4978 63.3431 96.4365 63.3384C96.2495 63.3242 96.0597 63.3335 95.8467 63.3335V66.729H94.8311C94.7918 66.5852 94.7816 59.4216 94.8232 59.1978C94.8703 59.1946 94.9214 59.189 94.9717 59.189C95.7441 59.189 96.5157 59.1901 97.2881 59.1909ZM78.2969 59.2319V59.2329C78.2992 59.2846 78.3037 59.3374 78.3037 59.3892C78.3037 61.7727 78.3035 64.157 78.3027 66.5405C78.3027 66.5931 78.3002 66.6452 78.2979 66.6978C78.2876 66.7103 78.2768 66.7231 78.2666 66.7349H77.3477C77.3108 66.5938 77.2975 59.4994 77.3359 59.1968H78.2656C78.2758 59.2085 78.2867 59.2202 78.2969 59.2319ZM74.6738 62.9604C74.1418 64.2139 73.6038 65.4644 73.0615 66.7319H72.2227C71.1617 64.2296 70.0989 61.7212 69.0293 59.1968H70.1318C70.9515 61.1623 71.8 63.1242 72.6338 65.0913C72.6472 65.0897 72.6607 65.088 72.6748 65.0864C73.5102 63.1232 74.3464 61.1596 75.1826 59.1948L76.2598 59.1938C75.7269 60.4608 75.2035 61.7124 74.6738 62.9604ZM91.5488 60.9253C90.7276 60.1096 89.7521 59.8234 88.6377 60.1763C87.6358 60.493 87.0105 61.1941 86.7197 62.2007C86.6152 62.563 86.5673 62.9377 86.6074 63.3071C86.6373 63.5789 86.7403 63.846 86.8369 64.106C87.024 64.6097 87.3473 65.0187 87.7764 65.3394C87.9634 65.4792 88.1603 65.6209 88.374 65.7065C88.6058 65.7985 88.8556 65.8522 89.1094 65.8853C89.5778 65.9458 90.0259 65.9087 90.4707 65.7358C91.5686 65.3098 92.365 64.2801 92.376 62.9937C92.3791 62.6157 92.2751 62.1192 92.1211 61.7798C92.0732 61.6745 92.0369 61.5596 91.9717 61.4653C91.8404 61.2783 91.7099 61.0848 91.5488 60.9253ZM63.6836 60.188C63.6531 60.188 63.6227 60.2018 63.5859 60.2104V65.8521C63.648 65.8568 63.7104 65.8657 63.7725 65.8657C64.0672 65.8689 64.3615 65.8677 64.6562 65.8716C65.0915 65.8778 65.5115 65.8078 65.9209 65.6538C66.7278 65.3505 67.2915 64.8061 67.5713 63.9897C67.8637 63.1386 67.7575 62.3105 67.3174 61.5396C66.8489 60.7186 66.0845 60.3224 65.1738 60.2202C64.6819 60.1652 64.1811 60.1951 63.6836 60.188ZM57.7393 60.6851C57.6654 60.843 57.5906 61.0004 57.5215 61.1606C57.3369 61.5888 57.1594 62.0202 56.9717 62.4468C56.8224 62.7854 56.6594 63.1178 56.5078 63.4556C56.4795 63.5184 56.472 63.5919 56.4531 63.6704H59.1455C58.6913 62.6465 58.2471 61.647 57.8008 60.6411C57.7693 60.6631 57.7463 60.6701 57.7393 60.6851ZM96.2744 60.188H95.8545V62.4468C96.3837 62.4468 96.8871 62.4434 97.3896 62.4497C97.5618 62.4521 97.7254 62.4209 97.8857 62.3706C98.1946 62.2732 98.4347 62.1096 98.5723 61.7866C98.7874 61.2797 98.6011 60.4535 97.876 60.2632C97.7133 60.2207 97.5412 60.1956 97.373 60.1909C97.0069 60.1799 96.6405 60.188 96.2744 60.188Z" fill="white"/>
<path opacity="0.4" d="M136.296 61.484C137.559 61.4118 138.457 61.2605 139.204 60.9956C139.524 60.8856 139.513 60.8924 139.513 60.7514C139.513 60.6276 139.486 60.5932 139.09 60.2183C137.865 59.0558 136.034 58.0961 134.145 57.6215C133.852 57.5493 133.549 57.477 133.474 57.4667C133.398 57.4529 133.257 57.4289 133.164 57.4082C133.068 57.391 132.699 57.3498 132.341 57.3188L131.687 57.2603L132.014 57.1331C132.534 56.9301 132.995 56.7375 133.474 56.514C134.141 56.2044 134.103 56.2182 134.172 56.3007C134.355 56.5243 135.002 56.9577 135.501 57.1915C136.719 57.7694 138.023 57.9964 139.823 57.9551C140.749 57.931 141.461 57.845 142.308 57.6559C143.399 57.4117 144.617 56.9405 145.312 56.4899C145.388 56.4417 145.481 56.3833 145.519 56.3626C145.563 56.3386 145.591 56.2801 145.598 56.2044C145.608 56.0909 145.594 56.0737 145.426 55.9636C144.996 55.6782 144.221 55.2792 143.812 55.1278C142.655 54.6979 141.74 54.4743 140.615 54.3505C140.067 54.2886 139.84 54.2817 138.997 54.2989C138.412 54.3092 137.879 54.3368 137.672 54.3643C137.483 54.3952 137.325 54.4124 137.321 54.4124C137.318 54.409 137.51 54.2749 137.751 54.1132C138.185 53.8243 139.111 53.1433 139.272 52.9954L139.359 52.9162L139.531 53.0194C140.071 53.3393 140.659 53.5491 141.475 53.7073C141.833 53.7796 141.971 53.7864 142.955 53.7864C144.239 53.7864 144.648 53.7349 145.811 53.4356C147.291 53.0573 148.836 52.304 149.917 51.4407C150.392 51.0624 150.457 50.9901 150.457 50.8354C150.457 50.7115 150.45 50.7012 150.275 50.6255C149.79 50.4123 148.974 50.1819 148.255 50.058C146.968 49.8379 145.199 49.8517 143.953 50.089C143.213 50.2334 142.466 50.4433 142.008 50.6393C141.84 50.7115 141.823 50.7081 141.919 50.6152C142.074 50.4639 142.831 49.6178 143.141 49.2497C143.423 48.9127 143.492 48.8473 143.554 48.8645C144.483 49.1225 145.674 49.1087 146.844 48.8301C147.356 48.7063 148.255 48.3692 148.798 48.0975C149.514 47.7364 150.413 47.1482 151.029 46.6323C151.335 46.3778 152.14 45.566 152.357 45.2909C152.746 44.8059 152.97 44.4448 152.97 44.3072C152.97 44.1903 152.959 44.1799 152.856 44.1593C152.027 44.0148 150.636 44.063 149.573 44.2762C149.174 44.3553 148.358 44.5652 148.186 44.6339C148.12 44.6615 147.873 44.7543 147.635 44.8472C147.054 45.0708 146.21 45.4938 145.801 45.7655C145.619 45.8894 145.467 45.9857 145.467 45.9822C145.467 45.9753 145.55 45.8343 145.646 45.6658C145.901 45.2359 145.904 45.229 146.269 44.517L146.596 43.8807L147.178 43.8601C147.797 43.8394 148.12 43.7809 148.719 43.5815C149.091 43.4611 149.607 43.2375 149.883 43.0827C149.996 43.0208 150.089 42.9692 150.096 42.9692C150.175 42.9692 151.228 42.2297 151.576 41.9305C152.612 41.0362 153.496 39.9665 154.095 38.8934C154.35 38.4325 154.463 38.1814 154.711 37.5245C154.738 37.4557 154.759 37.3353 154.759 37.2597C154.759 37.1255 154.756 37.1221 154.639 37.1221C154.243 37.1221 153.262 37.3113 152.694 37.5004C151.022 38.0542 149.463 39.0035 148.282 40.1936C148.076 40.3999 147.917 40.5444 147.928 40.5203C148.127 39.9218 148.444 38.7318 148.568 38.1023C148.589 37.9888 148.613 37.8788 148.62 37.8581C148.623 37.8375 148.716 37.8065 148.826 37.7928C149.108 37.7584 149.8 37.5211 150.165 37.3319C151.08 36.8607 151.951 36.1109 152.715 35.1409C153.537 34.1022 154.147 32.9706 154.563 31.7221C154.8 31.0135 155 29.9954 155 29.507C155 29.3488 155 29.3488 154.883 29.3488C154.649 29.3488 153.648 29.7925 153.09 30.1433C152.316 30.6249 151.724 31.103 151.022 31.8046C150.209 32.6198 149.714 33.2767 149.184 34.2501L149.108 34.3877L149.129 34.2501C149.163 34.0093 149.218 32.6886 149.218 32.066V31.4641L149.459 31.3678C149.783 31.2371 150.351 30.8897 150.664 30.6352C151.159 30.2328 151.631 29.6962 152.116 28.9877C152.794 27.9971 153.365 26.6007 153.654 25.2214C153.833 24.3719 153.875 23.9247 153.857 22.9342C153.847 22.4423 153.83 22.0124 153.816 21.9814C153.778 21.8954 153.589 21.9023 153.431 21.9917C152.97 22.2497 152.323 22.7691 151.775 23.3228C150.457 24.6539 149.421 26.4184 149.005 28.0418L148.967 28.1966L148.936 28.059C148.922 27.9833 148.878 27.7426 148.843 27.5259C148.726 26.8414 148.675 26.5594 148.551 26.0125L148.43 25.4794L148.506 25.4175C149.115 24.9359 149.363 24.678 149.728 24.1449C150.643 22.8172 151.163 20.7673 151.097 18.7552C151.087 18.4043 151.06 17.971 151.042 17.7921C150.98 17.2143 150.801 16.4163 150.64 15.9864C150.581 15.8316 150.564 15.8144 150.461 15.8041C150.357 15.7938 150.32 15.8178 150.137 15.9933C149.766 16.3544 149.16 17.1558 148.881 17.6545C148.289 18.7208 147.88 19.7939 147.673 20.8361C147.604 21.1766 147.504 21.9333 147.491 22.2291L147.48 22.3838L147.398 22.1603C147.322 21.9436 147.212 21.6787 147.081 21.3795C147.043 21.297 147.016 21.2247 147.016 21.2144C147.016 21.1938 146.864 20.8636 146.641 20.3924L146.51 20.1172L146.654 19.9418C147.267 19.1886 147.704 18.0088 147.807 16.8291C147.852 16.3269 147.852 15.2813 147.807 14.7585C147.683 13.2795 147.174 11.6801 146.458 10.5451C146.283 10.2699 146.272 10.2596 146.149 10.2596C145.997 10.2596 145.952 10.3181 145.656 10.9028C144.968 12.2476 144.593 14.0947 144.658 15.7972C144.669 16.1102 144.693 16.4576 144.71 16.5711C144.727 16.6846 144.751 16.8463 144.762 16.9288L144.782 17.0801L144.621 16.8428C144.307 16.3854 143.905 15.8454 143.533 15.3776C143.172 14.9236 143.161 14.9029 143.21 14.8273C143.302 14.6828 143.492 14.1669 143.567 13.8539C143.705 13.2933 143.746 12.4437 143.678 11.6836C143.519 9.92255 142.604 7.84509 141.482 6.70662C141.275 6.49681 141.241 6.47273 141.131 6.48305C141.017 6.49337 141.007 6.50369 140.931 6.71694C140.477 7.98955 140.405 9.99478 140.756 11.5322C140.811 11.7764 141.048 12.5503 141.121 12.7361C141.131 12.7636 141.041 12.6948 140.921 12.5813C140.8 12.4678 140.573 12.2683 140.418 12.1376C140.191 11.945 140.133 11.8762 140.116 11.7764C140.023 11.2674 139.606 10.4522 139.104 9.79529C138.849 9.45822 138.216 8.83223 137.793 8.49172C137.428 8.19936 136.919 7.83134 136.795 7.77286C136.74 7.74535 136.712 7.72815 136.399 7.53554C136.141 7.38076 135.473 7.06089 135.039 6.88891C134.172 6.54496 133.112 6.3042 132.455 6.3042H132.217V6.43834C132.217 6.66191 132.572 7.46675 132.92 8.02395C133.36 8.73248 133.752 9.21745 134.451 9.91567C135.976 11.4394 137.841 12.3818 139.338 12.3921C139.506 12.3921 139.537 12.4059 139.682 12.5366C139.93 12.7601 140.615 13.4205 140.615 13.4377C140.615 13.4446 140.477 13.3999 140.305 13.338C139.035 12.8633 137.208 12.6913 135.807 12.9115C135.459 12.9665 134.795 13.1247 134.575 13.2073C134.417 13.2657 134.403 13.2795 134.392 13.393C134.382 13.5065 134.403 13.534 134.633 13.7541C135.755 14.817 137.331 15.5805 139.066 15.9004C139.565 15.9933 140.721 16.0311 141.176 15.9726C141.547 15.921 142.05 15.7972 142.332 15.6837L142.545 15.5977L142.7 15.7903C142.838 15.9657 143.33 16.6433 143.478 16.8635C143.795 17.3243 143.977 17.6029 143.97 17.6133C143.967 17.6167 143.819 17.5548 143.64 17.4688C143.123 17.228 142.459 17.0389 141.664 16.9082C141.124 16.8187 139.506 16.8187 138.911 16.9082C138.219 17.0113 137.448 17.2246 136.922 17.4585C136.736 17.5445 136.726 17.5548 136.726 17.6752C136.726 17.8196 136.74 17.8334 137.19 18.167C138.271 18.9684 139.889 19.5738 141.334 19.7182C141.778 19.7629 142.735 19.7629 143.144 19.7182C143.681 19.6632 144.318 19.4843 144.724 19.2814C144.817 19.2333 144.903 19.2092 144.916 19.2264C144.975 19.2883 145.522 20.3889 145.749 20.9049C146.052 21.5893 146.465 22.6212 146.445 22.6384C146.438 22.6487 146.365 22.5937 146.283 22.518C145.212 21.5033 143.447 20.7466 141.561 20.4887C141.069 20.4233 139.469 20.4336 139.107 20.5093L138.894 20.5506V20.6985C138.894 20.8258 138.921 20.8842 139.094 21.1181C140.233 22.6384 142.387 23.9763 144.362 24.3856C144.951 24.506 146.004 24.537 146.5 24.4475C146.679 24.4131 146.868 24.3787 146.916 24.3719C147.026 24.3512 147.023 24.3478 147.202 25.0667C147.449 26.0469 147.687 27.2679 147.756 27.887C147.769 28.0005 147.787 28.1312 147.797 28.1794L147.814 28.2654L147.752 28.1794C147.239 27.464 146.393 26.6695 145.639 26.1879C145.477 26.0847 145.305 25.9747 145.257 25.9403C145.075 25.8165 144.304 25.4312 143.936 25.2799C143.354 25.0426 143.099 24.9635 142.132 24.7399C142.05 24.7193 141.781 24.6917 141.537 24.6814L141.096 24.6608V24.7984C141.096 24.9807 141.158 25.1458 141.399 25.6307C141.96 26.7451 142.828 27.7976 143.884 28.6403C145.178 29.6756 146.534 30.2431 147.708 30.2431H147.976L148 30.4391C148.045 30.814 147.99 32.9672 147.914 33.7858C147.873 34.2123 147.828 34.5941 147.814 34.6388C147.794 34.7041 147.769 34.6628 147.68 34.3946C147.577 34.0884 147.305 33.4934 147.095 33.1151C146.765 32.5235 146.049 31.6189 145.457 31.0479C144.469 30.0918 143.437 29.397 142.404 28.9911C142.318 28.9567 142.198 28.9086 142.136 28.8811C141.977 28.8123 141.754 28.8191 141.726 28.8914C141.692 28.9808 141.816 29.8441 141.922 30.2775C142.039 30.7349 142.081 30.876 142.229 31.2749C142.528 32.0763 142.934 32.8468 143.464 33.6241C143.905 34.2742 144.634 35.0721 145.178 35.509C145.477 35.7463 145.935 36.0455 146.248 36.2037C146.596 36.3792 147.301 36.6406 147.432 36.6406C147.484 36.6406 147.48 36.675 147.408 37.012C147.312 37.4488 147.112 38.2262 146.992 38.6355C146.944 38.7971 146.885 38.9966 146.861 39.0826C146.796 39.313 146.692 39.6157 146.455 40.2692L146.241 40.8539L146.186 40.4343C145.918 38.4772 144.817 36.4032 143.189 34.7935C142.569 34.1813 142.225 33.9027 141.62 33.5278C141.396 33.3902 141.279 33.3386 141.189 33.3386H141.069L141.045 33.5622C140.997 33.9887 141.048 35.4539 141.127 35.9183C141.279 36.84 141.496 37.6071 141.836 38.4463C141.991 38.8246 142.384 39.626 142.494 39.7911C142.538 39.8565 142.576 39.9184 142.576 39.9287C142.576 39.939 142.673 40.0904 142.786 40.2623C143.488 41.3114 144.331 42.1094 145.185 42.5393C145.323 42.6081 145.433 42.67 145.433 42.6803C145.433 42.7147 145.034 43.4886 144.848 43.8119C144.741 44.0011 144.645 44.173 144.638 44.1903C144.562 44.3829 143.337 46.278 143.258 46.3262C143.23 46.3434 143.227 46.3193 143.24 46.2436C143.251 46.1852 143.271 45.879 143.285 45.5592C143.33 44.3725 143.13 43.0896 142.693 41.7998C142.153 40.2073 141.317 38.7868 140.271 37.693C139.968 37.38 139.94 37.3594 139.827 37.3697C139.71 37.38 139.699 37.3904 139.624 37.6036C139.3 38.5082 139.135 39.6536 139.135 40.9743C139.135 43.7947 139.988 46.2574 141.482 47.757C141.84 48.1182 141.847 48.1285 141.785 48.1973C141.303 48.7545 140.326 49.7554 139.789 50.2472C139.61 50.4089 139.238 50.7322 138.963 50.9592C138.687 51.1896 138.457 51.3857 138.447 51.396C138.436 51.4063 138.237 51.5611 138.003 51.7365L137.579 52.0598L137.713 51.8053C137.972 51.3272 138.24 50.5774 138.409 49.8689C138.646 48.8886 138.722 48.2385 138.746 47.045C138.77 45.8137 138.691 45.0432 138.422 43.7947C138.257 43.0208 137.882 41.9477 137.596 41.4215C137.504 41.2529 137.479 41.2323 137.369 41.222C137.256 41.2116 137.235 41.2254 137.063 41.4455C134.867 44.2246 133.99 49.0915 135.132 52.1492C135.26 52.4898 135.466 52.93 135.611 53.157C135.655 53.2292 135.693 53.2946 135.693 53.3015C135.693 53.3152 135.298 53.5594 134.988 53.7349C134.214 54.1785 133.246 54.6704 132.579 54.9662C132.407 55.0419 132.2 55.1347 132.114 55.1726C132.028 55.2138 131.818 55.2998 131.65 55.3686C131.478 55.4374 131.316 55.5028 131.292 55.5165C131.264 55.5268 131.367 55.3858 131.522 55.2035C131.677 55.0212 131.846 54.808 131.897 54.7289C132.286 54.1476 132.262 54.1854 132.562 53.5973C133.26 52.2146 133.666 50.5843 133.77 48.7648C133.845 47.3959 133.69 45.8997 133.377 44.9263C133.295 44.6752 133.291 44.6718 133.167 44.6615C133.043 44.6511 133.019 44.6683 132.531 45.1602C131.35 46.3503 130.452 47.8327 129.781 49.7106C129.385 50.8216 129.155 52.1286 129.155 53.2877C129.155 54.2439 129.282 55.0247 129.554 55.7504C129.619 55.9327 129.671 56.084 129.664 56.0909C129.619 56.1356 128.36 56.4899 127.485 56.7066C126.333 56.9921 124.419 57.3016 123.397 57.367C123.118 57.3842 123.018 57.4048 123.005 57.4392C122.994 57.4667 123.001 57.7178 123.025 57.9929C123.046 58.2715 123.073 58.6361 123.084 58.8047L123.108 59.1108L123.524 59.0901C124.646 59.0351 126.553 58.7359 128.091 58.3679C128.28 58.3197 128.284 58.3231 128.335 58.4091C128.435 58.588 128.817 59.0317 129.044 59.2415C130.18 60.2836 131.739 60.9819 133.68 61.3155C134.475 61.4531 135.614 61.5253 136.296 61.484Z" fill="#E3F8F6"/>
</svg>
